<svg width="404" height="182" viewBox="0 0 404 182" fill="none" xmlns="http://www.w3.org/2000/svg">
<g filter="url(#filter0_d_25_49)">
<rect x="3" width="398" height="175.57" rx="19.245" fill="#1D1E23"/>
<rect x="3" width="398" height="175.57" rx="19.245" fill="#2C2C2C"/>
<rect x="3.34366" y="0.34366" width="397.313" height="174.883" rx="18.9013" stroke="black" stroke-width="0.68732"/>
</g>
<path d="M49.6888 83.436C49.462 83.436 49.301 83.3585 49.2055 83.2033C49.11 83.0482 49.0623 82.8096 49.0623 82.4874V82.0936C49.0623 81.7595 49.11 81.5208 49.2055 81.3777C49.301 81.2225 49.462 81.145 49.6888 81.145H55.2195V63.9799L49.5993 64.9464C49.3964 64.9464 49.2353 64.7674 49.116 64.4094C49.0086 64.0395 48.9549 63.6756 48.9549 63.3176C48.9549 63.1506 49.0026 63.0253 49.0981 62.9417C49.1936 62.8463 49.3427 62.7747 49.5456 62.7269L56.902 61.0802C57.1526 61.0802 57.3793 61.1518 57.5822 61.295C57.797 61.4263 57.9044 61.5814 57.9044 61.7604V81.145H62.6118C63.0414 81.145 63.2562 81.4612 63.2562 82.0936V82.4874C63.2562 83.1198 63.0414 83.436 62.6118 83.436H49.6888ZM80.8508 83.615C79.5144 83.615 78.3032 83.2093 77.2174 82.3979C76.1315 81.5865 75.2604 80.3335 74.6041 78.6391C73.9597 76.9447 73.6376 74.8266 73.6376 72.285C73.6376 69.7553 73.9597 67.6432 74.6041 65.9488C75.2604 64.2543 76.1315 63.0014 77.2174 62.19C78.3032 61.3666 79.5144 60.9549 80.8508 60.9549C82.1873 60.9549 83.4044 61.3666 84.5022 62.19C85.612 63.0014 86.495 64.2543 87.1513 65.9488C87.8076 67.6432 88.1357 69.7553 88.1357 72.285C88.1357 74.8266 87.8076 76.9447 87.1513 78.6391C86.495 80.3335 85.612 81.5865 84.5022 82.3979C83.4044 83.2093 82.1873 83.615 80.8508 83.615ZM80.8508 81.324C81.6742 81.324 82.426 81.0197 83.1061 80.4111C83.7982 79.8025 84.359 78.8241 84.7886 77.4757C85.2182 76.1273 85.433 74.3971 85.433 72.285C85.433 70.1848 85.2182 68.4606 84.7886 67.1122C84.359 65.7638 83.7982 64.7853 83.1061 64.1768C82.426 63.5563 81.6742 63.246 80.8508 63.246C80.0394 63.246 79.2877 63.5503 78.5956 64.1589C77.9154 64.7674 77.3665 65.7519 76.9489 67.1122C76.5312 68.4606 76.3224 70.1848 76.3224 72.285C76.3224 74.3971 76.5312 76.1273 76.9489 77.4757C77.3665 78.8241 77.9154 79.8025 78.5956 80.4111C79.2877 81.0197 80.0394 81.324 80.8508 81.324ZM97.8906 83.615C96.5542 83.615 95.343 83.2093 94.2572 82.3979C93.1713 81.5865 92.3002 80.3335 91.6439 78.6391C90.9996 76.9447 90.6774 74.8266 90.6774 72.285C90.6774 69.7553 90.9996 67.6432 91.6439 65.9488C92.3002 64.2543 93.1713 63.0014 94.2572 62.19C95.343 61.3666 96.5542 60.9549 97.8906 60.9549C99.2271 60.9549 100.444 61.3666 101.542 62.19C102.652 63.0014 103.535 64.2543 104.191 65.9488C104.847 67.6432 105.176 69.7553 105.176 72.285C105.176 74.8266 104.847 76.9447 104.191 78.6391C103.535 80.3335 102.652 81.5865 101.542 82.3979C100.444 83.2093 99.2271 83.615 97.8906 83.615ZM97.8906 81.324C98.714 81.324 99.4658 81.0197 100.146 80.4111C100.838 79.8025 101.399 78.8241 101.828 77.4757C102.258 76.1273 102.473 74.3971 102.473 72.285C102.473 70.1848 102.258 68.4606 101.828 67.1122C101.399 65.7638 100.838 64.7853 100.146 64.1768C99.4658 63.5563 98.714 63.246 97.8906 63.246C97.0792 63.246 96.3275 63.5503 95.6354 64.1589C94.9552 64.7674 94.4063 65.7519 93.9887 67.1122C93.571 68.4606 93.3622 70.1848 93.3622 72.285C93.3622 74.3971 93.571 76.1273 93.9887 77.4757C94.4063 78.8241 94.9552 79.8025 95.6354 80.4111C96.3275 81.0197 97.0792 81.324 97.8906 81.324ZM114.93 83.615C113.594 83.615 112.383 83.2093 111.297 82.3979C110.211 81.5865 109.34 80.3335 108.684 78.6391C108.039 76.9447 107.717 74.8266 107.717 72.285C107.717 69.7553 108.039 67.6432 108.684 65.9488C109.34 64.2543 110.211 63.0014 111.297 62.19C112.383 61.3666 113.594 60.9549 114.93 60.9549C116.267 60.9549 117.484 61.3666 118.582 62.19C119.692 63.0014 120.575 64.2543 121.231 65.9488C121.887 67.6432 122.215 69.7553 122.215 72.285C122.215 74.8266 121.887 76.9447 121.231 78.6391C120.575 80.3335 119.692 81.5865 118.582 82.3979C117.484 83.2093 116.267 83.615 114.93 83.615ZM114.93 81.324C115.754 81.324 116.506 81.0197 117.186 80.4111C117.878 79.8025 118.439 78.8241 118.868 77.4757C119.298 76.1273 119.513 74.3971 119.513 72.285C119.513 70.1848 119.298 68.4606 118.868 67.1122C118.439 65.7638 117.878 64.7853 117.186 64.1768C116.506 63.5563 115.754 63.246 114.93 63.246C114.119 63.246 113.367 63.5503 112.675 64.1589C111.995 64.7674 111.446 65.7519 111.028 67.1122C110.611 68.4606 110.402 70.1848 110.402 72.285C110.402 74.3971 110.611 76.1273 111.028 77.4757C111.446 78.8241 111.995 79.8025 112.675 80.4111C113.367 81.0197 114.119 81.324 114.93 81.324ZM142.71 83.615C140.073 83.615 137.984 82.9826 136.445 81.7177C134.906 80.4529 133.939 78.5198 133.545 75.9185H131.809C131.582 75.9185 131.415 75.8469 131.308 75.7037C131.213 75.5605 131.165 75.3159 131.165 74.9698V74.7371C131.165 74.415 131.213 74.1763 131.308 74.0212C131.415 73.8661 131.582 73.7885 131.809 73.7885H133.366C133.343 73.4783 133.331 72.9771 133.331 72.285C133.331 71.6406 133.343 71.1574 133.366 70.8352H131.809C131.582 70.8352 131.415 70.7636 131.308 70.6204C131.213 70.4653 131.165 70.2147 131.165 69.8686V69.6538C131.165 69.3197 131.213 69.0751 131.308 68.92C131.415 68.7649 131.582 68.6873 131.809 68.6873H133.617C134.047 66.1456 135.061 64.2245 136.66 62.9238C138.259 61.6112 140.299 60.9549 142.781 60.9549C143.688 60.9549 144.559 61.0623 145.394 61.2771C146.242 61.48 146.922 61.7365 147.435 62.0468C147.96 62.357 148.223 62.6553 148.223 62.9417C148.223 63.1088 148.157 63.3355 148.026 63.6219C147.906 63.8963 147.757 64.141 147.578 64.3557C147.411 64.5586 147.262 64.66 147.131 64.66C147.071 64.66 146.94 64.5944 146.737 64.4631C146.2 64.129 145.621 63.8426 145.001 63.604C144.38 63.3653 143.617 63.246 142.71 63.246C140.979 63.246 139.589 63.6756 138.539 64.5347C137.501 65.3939 136.803 66.7781 136.445 68.6873H145.305C145.735 68.6873 145.949 69.0095 145.949 69.6538V69.8686C145.949 70.2027 145.896 70.4474 145.788 70.6025C145.681 70.7576 145.52 70.8352 145.305 70.8352H136.194C136.182 71.1574 136.177 71.6526 136.177 72.3208C136.177 73.0129 136.182 73.5021 136.194 73.7885H145.305C145.735 73.7885 145.949 74.1047 145.949 74.7371V74.9698C145.949 75.3039 145.896 75.5486 145.788 75.7037C145.681 75.8469 145.52 75.9185 145.305 75.9185H136.445C136.791 77.7561 137.495 79.1164 138.557 79.9994C139.619 80.8825 140.92 81.324 142.459 81.324C143.438 81.324 144.279 81.1987 144.983 80.9481C145.687 80.6856 146.367 80.3693 147.023 79.9994C147.071 79.9756 147.161 79.9278 147.292 79.8562C147.423 79.7846 147.513 79.7489 147.56 79.7489C147.692 79.7489 147.841 79.8562 148.008 80.071C148.187 80.2739 148.342 80.5066 148.473 80.7691C148.604 81.0197 148.67 81.2046 148.67 81.324C148.67 81.6223 148.396 81.9564 147.847 82.3263C147.298 82.6843 146.564 82.9886 145.645 83.2391C144.738 83.4897 143.76 83.615 142.71 83.615Z" fill="white"/>
<path d="M49.1742 47.0201C49.0086 47.0201 48.8878 47 48.8117 46.9597C48.7401 46.915 48.7043 46.8479 48.7043 46.7584V39.0059C48.7043 38.8761 48.7312 38.7844 48.7849 38.7307C48.843 38.677 48.9348 38.6501 49.0601 38.6501H51.4764C52.1745 38.6501 52.792 38.8179 53.329 39.1535C53.8704 39.4847 54.1411 40.0955 54.1411 40.986C54.1411 41.6482 53.9868 42.1628 53.678 42.5297C53.3692 42.8922 53.0224 43.1361 52.6376 43.2614C52.2528 43.3822 51.906 43.4426 51.5972 43.4426H49.7447V46.7584C49.7447 46.8479 49.7067 46.915 49.6306 46.9597C49.5545 47 49.4359 47.0201 49.2749 47.0201H49.1742ZM51.6107 42.5364C51.812 42.5364 52.0223 42.4939 52.2416 42.4089C52.4609 42.3194 52.651 42.1606 52.8121 41.9324C52.9732 41.6997 53.0538 41.3842 53.0538 40.986C53.0538 40.4535 52.8949 40.0821 52.5772 39.8717C52.264 39.6614 51.8859 39.5563 51.4429 39.5563H49.7447V42.5364H51.6107ZM57.9133 47.0671C57.0139 47.0671 56.327 46.7986 55.8527 46.2617C55.3829 45.7202 55.1479 44.9349 55.1479 43.9057C55.1479 42.8765 55.3873 42.0845 55.8661 41.5296C56.3449 40.9703 57.0273 40.6906 57.9133 40.6906C58.7904 40.6906 59.4616 40.9681 59.927 41.5229C60.3923 42.0733 60.625 42.8676 60.625 43.9057C60.625 44.9394 60.3946 45.7247 59.9337 46.2617C59.4773 46.7986 58.8038 47.0671 57.9133 47.0671ZM57.8798 46.208C58.4615 46.208 58.8911 46.02 59.1685 45.6442C59.4459 45.2638 59.5846 44.6776 59.5846 43.8856C59.5846 43.0891 59.4459 42.5007 59.1685 42.1203C58.8911 41.7399 58.4615 41.5498 57.8798 41.5498C57.3025 41.5498 56.8774 41.7399 56.6045 42.1203C56.3315 42.4962 56.195 43.0846 56.195 43.8856C56.195 44.6821 56.3293 45.2683 56.5978 45.6442C56.8707 46.02 57.2981 46.208 57.8798 46.208ZM62.84 47.0201C62.67 47.0201 62.5469 47 62.4709 46.9597C62.3948 46.915 62.3567 46.8479 62.3567 46.7584V42.57C62.3567 42.0509 62.3321 41.6773 62.2829 41.4491C62.2337 41.2164 62.2091 41.0889 62.2091 41.0665C62.2091 40.9681 62.2829 40.8987 62.4306 40.8584C62.5827 40.8137 62.7259 40.7913 62.8602 40.7913C62.9676 40.7913 63.0481 40.8495 63.1018 40.9658C63.1555 41.0777 63.2025 41.2365 63.2427 41.4424L63.2763 41.5833C63.7014 40.9882 64.1623 40.6906 64.659 40.6906C64.8872 40.6906 65.0595 40.7331 65.1758 40.8181C65.2922 40.8987 65.3503 41.0083 65.3503 41.147C65.3503 41.2813 65.3257 41.4245 65.2765 41.5766C65.2318 41.7243 65.1781 41.7981 65.1154 41.7981C65.0841 41.7981 65.0282 41.7847 64.9476 41.7578C64.876 41.7265 64.8044 41.7041 64.7328 41.6907C64.6612 41.6728 64.5695 41.6639 64.4576 41.6639C64.2742 41.6639 64.0997 41.7176 63.9341 41.825C63.773 41.9324 63.6365 42.0509 63.5247 42.1807C63.4128 42.3105 63.3569 42.3821 63.3569 42.3955V46.7584C63.3569 46.8479 63.3188 46.915 63.2427 46.9597C63.1667 47 63.0481 47.0201 62.887 47.0201H62.84ZM68.4648 47.0671C68.0665 47.0671 67.7108 46.9463 67.3975 46.7047C67.0843 46.463 66.9277 46.0357 66.9277 45.4227V41.6169H66.3303C66.2453 41.6169 66.1827 41.59 66.1424 41.5363C66.1066 41.4782 66.0887 41.3864 66.0887 41.2611V41.1135C66.0887 40.9882 66.1066 40.8987 66.1424 40.845C66.1827 40.7868 66.2453 40.7577 66.3303 40.7577H66.9277L67.0687 39.5093C67.0776 39.3348 67.2051 39.2475 67.4512 39.2475H67.5653C67.6906 39.2475 67.7824 39.2699 67.8405 39.3146C67.8987 39.3549 67.9278 39.4198 67.9278 39.5093V40.7577H68.9279C69.0129 40.7577 69.0733 40.7868 69.1091 40.845C69.1494 40.8987 69.1695 40.9882 69.1695 41.1135V41.2611C69.1695 41.3864 69.1494 41.4782 69.1091 41.5363C69.0733 41.59 69.0129 41.6169 68.9279 41.6169H67.9278V45.3287C67.9278 45.6553 67.9837 45.8836 68.0956 46.0133C68.2119 46.1431 68.3686 46.208 68.5655 46.208C68.7176 46.208 68.8339 46.199 68.9145 46.1811C68.9995 46.1632 69.0554 46.1543 69.0823 46.1543C69.1539 46.1543 69.212 46.2259 69.2568 46.3691C69.306 46.5123 69.3306 46.6264 69.3306 46.7114C69.3306 46.9485 69.042 47.0671 68.4648 47.0671ZM71.5054 47.0201C71.3398 47.0201 71.219 47 71.1429 46.9597C71.0668 46.915 71.0288 46.8479 71.0288 46.7584V41.6169H70.5522C70.3911 41.6169 70.3106 41.4983 70.3106 41.2611V41.1135C70.3106 40.8763 70.3911 40.7577 70.5522 40.7577H71.0288V39.6234C71.0288 38.9969 71.1832 38.5674 71.4919 38.3347C71.8052 38.0975 72.1631 37.9789 72.5659 37.9789C73.1476 37.9789 73.4384 38.0997 73.4384 38.3414C73.4384 38.3817 73.4273 38.4488 73.4049 38.5427C73.387 38.6322 73.3579 38.7128 73.3176 38.7844C73.2818 38.856 73.2393 38.8918 73.1901 38.8918C73.1632 38.8918 73.1073 38.8828 73.0223 38.8649C72.9373 38.847 72.8209 38.8381 72.6733 38.8381C72.539 38.8381 72.4249 38.8582 72.3309 38.8985C72.2414 38.9388 72.1676 39.0238 72.1094 39.1535C72.0557 39.2833 72.0289 39.4713 72.0289 39.7174V40.7577H73.0693C73.1543 40.7577 73.2147 40.7868 73.2505 40.845C73.2908 40.8987 73.3109 40.9882 73.3109 41.1135V41.2611C73.3109 41.3864 73.2908 41.4782 73.2505 41.5363C73.2147 41.59 73.1543 41.6169 73.0693 41.6169H72.0289V46.7584C72.0289 46.8479 71.9909 46.915 71.9148 46.9597C71.8387 47 71.7201 47.0201 71.559 47.0201H71.5054ZM77.0428 47.0671C76.1434 47.0671 75.4565 46.7986 74.9822 46.2617C74.5124 45.7202 74.2775 44.9349 74.2775 43.9057C74.2775 42.8765 74.5169 42.0845 74.9956 41.5296C75.4744 40.9703 76.1568 40.6906 77.0428 40.6906C77.9199 40.6906 78.5911 40.9681 79.0565 41.5229C79.5218 42.0733 79.7545 42.8676 79.7545 43.9057C79.7545 44.9394 79.5241 45.7247 79.0632 46.2617C78.6068 46.7986 77.9333 47.0671 77.0428 47.0671ZM77.0093 46.208C77.591 46.208 78.0206 46.02 78.298 45.6442C78.5754 45.2638 78.7142 44.6776 78.7142 43.8856C78.7142 43.0891 78.5754 42.5007 78.298 42.1203C78.0206 41.7399 77.591 41.5498 77.0093 41.5498C76.432 41.5498 76.0069 41.7399 75.734 42.1203C75.461 42.4962 75.3245 43.0846 75.3245 43.8856C75.3245 44.6821 75.4588 45.2683 75.7273 45.6442C76.0002 46.02 76.4276 46.208 77.0093 46.208ZM82.9294 47.0671C82.5311 47.0671 82.1754 46.9463 81.8621 46.7047C81.5489 46.463 81.3923 46.0357 81.3923 45.4227V38.2877C81.3923 38.1132 81.5511 38.0259 81.8688 38.0259H81.9225C82.2358 38.0259 82.3924 38.1132 82.3924 38.2877V45.3287C82.3924 45.6553 82.4506 45.8836 82.5669 46.0133C82.6832 46.1431 82.8399 46.208 83.0368 46.208C83.1844 46.208 83.3008 46.199 83.3858 46.1811C83.4708 46.1632 83.5267 46.1543 83.5536 46.1543C83.6252 46.1543 83.6834 46.2259 83.7281 46.3691C83.7773 46.5123 83.8019 46.6264 83.8019 46.7114C83.8019 46.9485 83.5111 47.0671 82.9294 47.0671ZM85.4867 39.2542C85.169 39.2542 85.0101 39.167 85.0101 38.9925V38.2877C85.0101 38.1132 85.169 38.0259 85.4867 38.0259H85.6276C85.9498 38.0259 86.1109 38.1132 86.1109 38.2877V38.9925C86.1109 39.167 85.9498 39.2542 85.6276 39.2542H85.4867ZM85.5337 47.0201C85.216 47.0201 85.0571 46.9329 85.0571 46.7584V40.9994C85.0571 40.8249 85.216 40.7376 85.5337 40.7376H85.5806C85.9028 40.7376 86.0639 40.8249 86.0639 40.9994V46.7584C86.0639 46.9329 85.9028 47.0201 85.5806 47.0201H85.5337ZM90.561 47.0671C89.6616 47.0671 88.9747 46.7986 88.5004 46.2617C88.0306 45.7202 87.7956 44.9349 87.7956 43.9057C87.7956 42.8765 88.035 42.0845 88.5138 41.5296C88.9926 40.9703 89.675 40.6906 90.561 40.6906C91.4381 40.6906 92.1093 40.9681 92.5747 41.5229C93.04 42.0733 93.2727 42.8676 93.2727 43.9057C93.2727 44.9394 93.0423 45.7247 92.5814 46.2617C92.1249 46.7986 91.4515 47.0671 90.561 47.0671ZM90.5275 46.208C91.1092 46.208 91.5388 46.02 91.8162 45.6442C92.0936 45.2638 92.2323 44.6776 92.2323 43.8856C92.2323 43.0891 92.0936 42.5007 91.8162 42.1203C91.5388 41.7399 91.1092 41.5498 90.5275 41.5498C89.9502 41.5498 89.5251 41.7399 89.2522 42.1203C88.9792 42.4962 88.8427 43.0846 88.8427 43.8856C88.8427 44.6821 88.977 45.2683 89.2455 45.6442C89.5184 46.02 89.9458 46.208 90.5275 46.208Z" fill="white"/>
<path d="M48.86 105.415C48.6667 105.415 48.5218 105.388 48.4251 105.334C48.332 105.281 48.2855 105.204 48.2855 105.104V98.9928C48.2855 98.7816 48.477 98.676 48.86 98.676H49.193C49.3899 98.676 49.533 98.7029 49.6225 98.7566C49.7156 98.8103 49.7622 98.889 49.7622 98.9928V105.104C49.7622 105.311 49.5724 105.415 49.193 105.415H48.86ZM51.6147 105.404C51.2317 105.404 51.0401 105.304 51.0401 105.104V98.9928C51.0401 98.889 51.0867 98.812 51.1797 98.7619C51.2728 98.7082 51.4178 98.6814 51.6147 98.6814H52.0228C52.1767 98.6814 52.3038 98.6993 52.404 98.7351C52.5043 98.7709 52.5866 98.8407 52.651 98.9445L54.9063 102.419L55.1641 102.805V98.9928C55.1641 98.889 55.2106 98.812 55.3037 98.7619C55.3967 98.7082 55.5417 98.6814 55.7386 98.6814H56.0125C56.2094 98.6814 56.3525 98.7082 56.442 98.7619C56.5351 98.812 56.5817 98.889 56.5817 98.9928V105.104C56.5817 105.304 56.3919 105.404 56.0125 105.404H55.6473C55.4898 105.404 55.3627 105.388 55.2661 105.356C55.1694 105.32 55.0889 105.252 55.0244 105.152L52.6618 101.538L52.4577 101.237V105.104C52.4577 105.304 52.268 105.404 51.8885 105.404H51.6147ZM59.927 105.404C59.773 105.404 59.6513 105.39 59.5618 105.361C59.4723 105.329 59.4168 105.277 59.3954 105.206L57.3334 99.068C57.3048 98.9821 57.2905 98.9248 57.2905 98.8962C57.2905 98.753 57.4855 98.6814 57.8757 98.6814H58.1872C58.5058 98.6814 58.6937 98.7762 58.751 98.966L60.0397 103.095L60.1471 103.428H60.1847L60.2921 103.095L61.613 98.966C61.6775 98.7762 61.8672 98.6814 62.1822 98.6814H62.4722C62.8552 98.6814 63.0468 98.753 63.0468 98.8962C63.0468 98.9606 63.036 99.0179 63.0145 99.068L60.9526 105.206C60.9311 105.277 60.8738 105.329 60.7807 105.361C60.6913 105.39 60.5713 105.404 60.421 105.404H59.927ZM64.1798 105.388C64.0473 105.388 63.9507 105.358 63.8898 105.297C63.8289 105.236 63.7985 105.139 63.7985 105.007V99.0841C63.7985 98.9517 63.8289 98.8568 63.8898 98.7995C63.9507 98.7387 64.0473 98.7082 64.1798 98.7082H67.6754C67.7757 98.7082 67.8473 98.7458 67.8902 98.821C67.9367 98.8962 67.96 99.0179 67.96 99.1861V99.4761C67.96 99.6443 67.9367 99.7661 67.8902 99.8412C67.8473 99.9164 67.7757 99.954 67.6754 99.954H65.2698V101.339H67.4177C67.5179 101.339 67.5895 101.377 67.6325 101.452C67.679 101.527 67.7023 101.649 67.7023 101.817V102.113C67.7023 102.281 67.679 102.403 67.6325 102.478C67.5895 102.553 67.5179 102.591 67.4177 102.591H65.2698V104.137H67.6808C67.781 104.137 67.8526 104.175 67.8956 104.25C67.9421 104.325 67.9654 104.445 67.9654 104.61V104.91C67.9654 105.078 67.9421 105.2 67.8956 105.275C67.8526 105.351 67.781 105.388 67.6808 105.388H64.1798ZM70.8113 105.469C70.3603 105.469 69.9629 105.424 69.6193 105.334C69.2792 105.241 69.0178 105.129 68.8353 104.996C68.6563 104.864 68.5668 104.738 68.5668 104.62C68.5668 104.527 68.6008 104.413 68.6688 104.277C68.7404 104.141 68.8245 104.024 68.9212 103.928C69.0178 103.827 69.0984 103.777 69.1628 103.777C69.2022 103.777 69.2863 103.811 69.4152 103.879C69.6085 103.979 69.7911 104.06 69.9629 104.121C70.1383 104.182 70.3388 104.212 70.5643 104.212C70.8149 104.212 71.0261 104.164 71.1979 104.067C71.3733 103.967 71.4611 103.793 71.4611 103.546C71.4611 103.403 71.4163 103.28 71.3268 103.176C71.2373 103.072 71.1228 102.984 70.9832 102.913C70.8435 102.841 70.6538 102.757 70.414 102.66L69.9898 102.478C69.732 102.352 69.5101 102.215 69.3239 102.064C69.1413 101.914 68.991 101.715 68.8729 101.468C68.7583 101.221 68.701 100.919 68.701 100.561C68.701 100.124 68.8084 99.7607 69.0232 99.4707C69.238 99.1808 69.5172 98.9678 69.8609 98.8317C70.2045 98.6957 70.5733 98.6277 70.967 98.6277C71.2892 98.6277 71.581 98.6617 71.8423 98.7297C72.1036 98.7941 72.3077 98.8783 72.4544 98.9821C72.6048 99.0859 72.68 99.1897 72.68 99.2935C72.68 99.3794 72.6513 99.4904 72.5941 99.6264C72.5404 99.7589 72.4723 99.8752 72.39 99.9755C72.3077 100.076 72.2307 100.126 72.1591 100.126C72.1269 100.126 72.0696 100.108 71.9873 100.072C71.8548 100.018 71.7206 99.9755 71.5846 99.9433C71.4521 99.9075 71.2892 99.8896 71.0959 99.8896C70.763 99.8896 70.5321 99.9433 70.4032 100.051C70.2744 100.154 70.2099 100.278 70.2099 100.421C70.2099 100.586 70.2529 100.724 70.3388 100.835C70.4283 100.946 70.5393 101.037 70.6717 101.108C70.8077 101.18 70.9957 101.262 71.2355 101.355C71.5971 101.509 71.8924 101.656 72.1215 101.796C72.3506 101.932 72.5475 102.129 72.7122 102.386C72.8804 102.644 72.9646 102.974 72.9646 103.374C72.9646 103.865 72.8608 104.268 72.6531 104.583C72.4491 104.894 72.1842 105.12 71.8584 105.259C71.5362 105.399 71.1872 105.469 70.8113 105.469ZM75.5903 105.404C75.2073 105.404 75.0158 105.304 75.0158 105.104V99.954H73.5015C73.4013 99.954 73.3279 99.9164 73.2814 99.8412C73.2384 99.7661 73.2169 99.6443 73.2169 99.4761V99.1861C73.2169 99.0179 73.2384 98.8962 73.2814 98.821C73.3279 98.7458 73.4013 98.7082 73.5015 98.7082H78.0174C78.1177 98.7082 78.1893 98.7458 78.2322 98.821C78.2788 98.8962 78.302 99.0179 78.302 99.1861V99.4761C78.302 99.6443 78.2788 99.7661 78.2322 99.8412C78.1893 99.9164 78.1177 99.954 78.0174 99.954H76.4978V105.104C76.4978 105.304 76.3063 105.404 75.9233 105.404H75.5903ZM79.4189 105.388C79.2865 105.388 79.1898 105.358 79.129 105.297C79.0681 105.236 79.0377 105.139 79.0377 105.007V99.0841C79.0377 98.9517 79.0681 98.8568 79.129 98.7995C79.1898 98.7387 79.2865 98.7082 79.4189 98.7082H82.9146C83.0148 98.7082 83.0864 98.7458 83.1294 98.821C83.1759 98.8962 83.1992 99.0179 83.1992 99.1861V99.4761C83.1992 99.6443 83.1759 99.7661 83.1294 99.8412C83.0864 99.9164 83.0148 99.954 82.9146 99.954H80.509V101.339H82.6569C82.7571 101.339 82.8287 101.377 82.8716 101.452C82.9182 101.527 82.9414 101.649 82.9414 101.817V102.113C82.9414 102.281 82.9182 102.403 82.8716 102.478C82.8287 102.553 82.7571 102.591 82.6569 102.591H80.509V104.137H82.92C83.0202 104.137 83.0918 104.175 83.1348 104.25C83.1813 104.325 83.2046 104.445 83.2046 104.61V104.91C83.2046 105.078 83.1813 105.2 83.1348 105.275C83.0918 105.351 83.0202 105.388 82.92 105.388H79.4189ZM86.0505 105.404C85.6675 105.404 85.4759 105.304 85.4759 105.104V99.954H83.9617C83.8615 99.954 83.7881 99.9164 83.7415 99.8412C83.6986 99.7661 83.6771 99.6443 83.6771 99.4761V99.1861C83.6771 99.0179 83.6986 98.8962 83.7415 98.821C83.7881 98.7458 83.8615 98.7082 83.9617 98.7082H88.4776C88.5778 98.7082 88.6494 98.7458 88.6924 98.821C88.7389 98.8962 88.7622 99.0179 88.7622 99.1861V99.4761C88.7622 99.6443 88.7389 99.7661 88.6924 99.8412C88.6494 99.9164 88.5778 99.954 88.4776 99.954H86.958V105.104C86.958 105.304 86.7665 105.404 86.3834 105.404H86.0505Z" fill="white"/>
<path d="M156.286 105.404C155.903 105.404 155.711 105.304 155.711 105.104V99.0841C155.711 98.9517 155.742 98.8568 155.803 98.7995C155.863 98.7387 155.96 98.7082 156.093 98.7082H157.956C159.538 98.7082 160.329 99.3043 160.329 100.496C160.329 100.858 160.227 101.169 160.023 101.431C159.823 101.692 159.552 101.887 159.212 102.016V102.054C159.33 102.104 159.454 102.211 159.583 102.376C159.715 102.54 159.821 102.727 159.9 102.934L160.743 105.034C160.771 105.12 160.786 105.18 160.786 105.216C160.786 105.342 160.596 105.404 160.216 105.404H159.824C159.506 105.404 159.321 105.338 159.271 105.206L158.514 103.342C158.443 103.199 158.373 103.088 158.305 103.009C158.24 102.931 158.149 102.872 158.031 102.832C157.913 102.789 157.754 102.768 157.553 102.768H157.183V105.104C157.183 105.304 156.991 105.404 156.608 105.404H156.286ZM158.085 101.5C158.214 101.5 158.335 101.465 158.45 101.393C158.564 101.318 158.656 101.218 158.724 101.092C158.792 100.967 158.826 100.829 158.826 100.679C158.826 100.457 158.752 100.282 158.606 100.153C158.462 100.02 158.267 99.954 158.02 99.954H157.183V101.5H158.085ZM161.924 105.388C161.792 105.388 161.695 105.358 161.634 105.297C161.573 105.236 161.543 105.139 161.543 105.007V99.0841C161.543 98.9517 161.573 98.8568 161.634 98.7995C161.695 98.7387 161.792 98.7082 161.924 98.7082H165.42C165.52 98.7082 165.591 98.7458 165.634 98.821C165.681 98.8962 165.704 99.0179 165.704 99.1861V99.4761C165.704 99.6443 165.681 99.7661 165.634 99.8412C165.591 99.9164 165.52 99.954 165.42 99.954H163.014V101.339H165.162C165.262 101.339 165.334 101.377 165.377 101.452C165.423 101.527 165.446 101.649 165.446 101.817V102.113C165.446 102.281 165.423 102.403 165.377 102.478C165.334 102.553 165.262 102.591 165.162 102.591H163.014V104.137H165.425C165.525 104.137 165.597 104.175 165.64 104.25C165.686 104.325 165.71 104.445 165.71 104.61V104.91C165.71 105.078 165.686 105.2 165.64 105.275C165.597 105.351 165.525 105.388 165.425 105.388H161.924ZM168.556 105.404C168.173 105.404 167.981 105.304 167.981 105.104V99.954H166.467C166.367 99.954 166.293 99.9164 166.247 99.8412C166.204 99.7661 166.182 99.6443 166.182 99.4761V99.1861C166.182 99.0179 166.204 98.8962 166.247 98.821C166.293 98.7458 166.367 98.7082 166.467 98.7082H170.983C171.083 98.7082 171.154 98.7458 171.197 98.821C171.244 98.8962 171.267 99.0179 171.267 99.1861V99.4761C171.267 99.6443 171.244 99.7661 171.197 99.8412C171.154 99.9164 171.083 99.954 170.983 99.954H169.463V105.104C169.463 105.304 169.272 105.404 168.888 105.404H168.556ZM174.741 105.469C174.161 105.469 173.664 105.377 173.249 105.195C172.837 105.012 172.522 104.749 172.304 104.405C172.085 104.058 171.976 103.641 171.976 103.154V98.9928C171.976 98.889 172.023 98.812 172.116 98.7619C172.209 98.7082 172.354 98.6814 172.551 98.6814H172.873C173.07 98.6814 173.213 98.7082 173.302 98.7619C173.395 98.812 173.442 98.889 173.442 98.9928V103.058C173.442 103.28 173.496 103.478 173.603 103.654C173.714 103.829 173.868 103.967 174.065 104.067C174.262 104.164 174.487 104.212 174.741 104.212C174.996 104.212 175.221 104.164 175.418 104.067C175.618 103.967 175.774 103.829 175.885 103.654C175.996 103.478 176.052 103.28 176.052 103.058V98.9928C176.052 98.889 176.096 98.812 176.186 98.7619C176.279 98.7082 176.424 98.6814 176.621 98.6814H176.938C177.135 98.6814 177.278 98.7082 177.367 98.7619C177.46 98.812 177.507 98.889 177.507 98.9928V103.154C177.507 103.641 177.398 104.058 177.179 104.405C176.961 104.749 176.644 105.012 176.229 105.195C175.817 105.377 175.321 105.469 174.741 105.469ZM179.375 105.404C178.992 105.404 178.801 105.304 178.801 105.104V99.0841C178.801 98.9517 178.831 98.8568 178.892 98.7995C178.953 98.7387 179.05 98.7082 179.182 98.7082H181.045C182.628 98.7082 183.419 99.3043 183.419 100.496C183.419 100.858 183.317 101.169 183.113 101.431C182.912 101.692 182.642 101.887 182.302 102.016V102.054C182.42 102.104 182.544 102.211 182.672 102.376C182.805 102.54 182.911 102.727 182.989 102.934L183.832 105.034C183.861 105.12 183.875 105.18 183.875 105.216C183.875 105.342 183.686 105.404 183.306 105.404H182.914C182.595 105.404 182.411 105.338 182.361 105.206L181.604 103.342C181.532 103.199 181.462 103.088 181.394 103.009C181.33 102.931 181.239 102.872 181.121 102.832C181.002 102.789 180.843 102.768 180.643 102.768H180.272V105.104C180.272 105.304 180.081 105.404 179.698 105.404H179.375ZM181.174 101.5C181.303 101.5 181.425 101.465 181.539 101.393C181.654 101.318 181.745 101.218 181.813 101.092C181.881 100.967 181.915 100.829 181.915 100.679C181.915 100.457 181.842 100.282 181.695 100.153C181.552 100.02 181.357 99.954 181.11 99.954H180.272V101.5H181.174ZM185.207 105.404C184.824 105.404 184.632 105.304 184.632 105.104V98.9928C184.632 98.889 184.679 98.812 184.772 98.7619C184.865 98.7082 185.01 98.6814 185.207 98.6814H185.615C185.769 98.6814 185.896 98.6993 185.996 98.7351C186.097 98.7709 186.179 98.8407 186.243 98.9445L188.499 102.419L188.756 102.805V98.9928C188.756 98.889 188.803 98.812 188.896 98.7619C188.989 98.7082 189.134 98.6814 189.331 98.6814H189.605C189.802 98.6814 189.945 98.7082 190.034 98.7619C190.127 98.812 190.174 98.889 190.174 98.9928V105.104C190.174 105.304 189.984 105.404 189.605 105.404H189.24C189.082 105.404 188.955 105.388 188.858 105.356C188.762 105.32 188.681 105.252 188.617 105.152L186.254 101.538L186.05 101.237V105.104C186.05 105.304 185.86 105.404 185.481 105.404H185.207ZM193.288 105.404C192.905 105.404 192.714 105.304 192.714 105.104V99.954H191.2C191.099 99.954 191.026 99.9164 190.979 99.8412C190.936 99.7661 190.915 99.6443 190.915 99.4761V99.1861C190.915 99.0179 190.936 98.8962 190.979 98.821C191.026 98.7458 191.099 98.7082 191.2 98.7082H195.715C195.816 98.7082 195.887 98.7458 195.93 98.821C195.977 98.8962 196 99.0179 196 99.1861V99.4761C196 99.6443 195.977 99.7661 195.93 99.8412C195.887 99.9164 195.816 99.954 195.715 99.954H194.196V105.104C194.196 105.304 194.004 105.404 193.621 105.404H193.288Z" fill="white"/>
<path d="M61.1075 127.536C61.0109 127.536 60.9268 127.488 60.8552 127.391C60.7836 127.291 60.7281 127.178 60.6887 127.053C60.6529 126.924 60.635 126.822 60.635 126.747C60.635 126.675 60.6422 126.627 60.6565 126.602C60.6708 126.577 60.7048 126.557 60.7585 126.543C61.2418 126.396 61.6696 126.16 62.0419 125.834C62.4142 125.508 62.6773 125.116 62.8312 124.658C62.6594 124.751 62.4965 124.816 62.3426 124.851C62.1922 124.884 62.0365 124.9 61.8754 124.9C61.6033 124.9 61.3223 124.834 61.0324 124.701C60.746 124.569 60.5008 124.352 60.2967 124.051C60.0927 123.747 59.9907 123.357 59.9907 122.881C59.9907 122.39 60.098 121.986 60.3128 121.667C60.5276 121.345 60.8051 121.111 61.1451 120.964C61.4888 120.813 61.8521 120.738 62.2352 120.738C62.6254 120.738 62.9905 120.822 63.3306 120.991C63.6707 121.159 63.9481 121.429 64.1629 121.801C64.3813 122.174 64.4904 122.65 64.4904 123.23C64.4904 124.318 64.247 125.183 63.7602 125.823C63.2733 126.461 62.756 126.906 62.2083 127.16C61.6642 127.411 61.2973 127.536 61.1075 127.536ZM62.2835 123.783C62.5126 123.783 62.765 123.708 63.0406 123.557C63.0478 123.461 63.0514 123.314 63.0514 123.117C63.0514 122.673 62.9762 122.353 62.8258 122.156C62.6755 121.955 62.4768 121.855 62.2298 121.855C62.0795 121.855 61.9416 121.898 61.8163 121.984C61.6946 122.066 61.598 122.183 61.5264 122.333C61.4548 122.48 61.419 122.648 61.419 122.838C61.419 123.131 61.4942 123.362 61.6445 123.53C61.7984 123.699 62.0114 123.783 62.2835 123.783ZM67.3793 127.568C66.9104 127.568 66.5059 127.432 66.1658 127.16C65.8257 126.888 65.5644 126.496 65.3818 125.984C65.2028 125.469 65.1133 124.855 65.1133 124.143C65.1133 123.434 65.2028 122.823 65.3818 122.312C65.5644 121.8 65.8257 121.408 66.1658 121.136C66.5059 120.864 66.9104 120.727 67.3793 120.727C67.8483 120.727 68.251 120.864 68.5875 121.136C68.9276 121.408 69.1871 121.8 69.3661 122.312C69.5487 122.823 69.64 123.434 69.64 124.143C69.64 124.855 69.5487 125.469 69.3661 125.984C69.1871 126.496 68.9276 126.888 68.5875 127.16C68.251 127.432 67.8483 127.568 67.3793 127.568ZM67.3793 126.446C67.6478 126.446 67.8537 126.251 67.9969 125.861C68.14 125.471 68.2116 124.898 68.2116 124.143C68.2116 123.391 68.14 122.82 67.9969 122.43C67.8537 122.039 67.6478 121.844 67.3793 121.844C67.1109 121.844 66.905 122.039 66.7618 122.43C66.6186 122.82 66.547 123.391 66.547 124.143C66.547 124.898 66.6186 125.471 66.7618 125.861C66.905 126.251 67.1109 126.446 67.3793 126.446ZM72.4913 127.568C72.0223 127.568 71.6178 127.432 71.2777 127.16C70.9377 126.888 70.6763 126.496 70.4938 125.984C70.3148 125.469 70.2253 124.855 70.2253 124.143C70.2253 123.434 70.3148 122.823 70.4938 122.312C70.6763 121.8 70.9377 121.408 71.2777 121.136C71.6178 120.864 72.0223 120.727 72.4913 120.727C72.9602 120.727 73.363 120.864 73.6995 121.136C74.0395 121.408 74.2991 121.8 74.4781 122.312C74.6606 122.823 74.7519 123.434 74.7519 124.143C74.7519 124.855 74.6606 125.469 74.4781 125.984C74.2991 126.496 74.0395 126.888 73.6995 127.16C73.363 127.432 72.9602 127.568 72.4913 127.568ZM72.4913 126.446C72.7598 126.446 72.9656 126.251 73.1088 125.861C73.252 125.471 73.3236 124.898 73.3236 124.143C73.3236 123.391 73.252 122.82 73.1088 122.43C72.9656 122.039 72.7598 121.844 72.4913 121.844C72.2228 121.844 72.017 122.039 71.8738 122.43C71.7306 122.82 71.659 123.391 71.659 124.143C71.659 124.898 71.7306 125.471 71.8738 125.861C72.017 126.251 72.2228 126.446 72.4913 126.446ZM80.825 127.568C80.0088 127.568 79.3663 127.381 78.8973 127.005C78.4319 126.629 78.1295 126.049 77.9898 125.265H77.6354C77.5388 125.265 77.4672 125.24 77.4207 125.19C77.3741 125.136 77.3508 125.052 77.3508 124.937V124.868C77.3508 124.757 77.3741 124.676 77.4207 124.626C77.4672 124.572 77.5388 124.545 77.6354 124.545H77.9147C77.9111 124.456 77.9093 124.316 77.9093 124.126C77.9093 123.99 77.9111 123.888 77.9147 123.82H77.6354C77.5388 123.82 77.4672 123.795 77.4207 123.745C77.3741 123.692 77.3508 123.607 77.3508 123.493V123.428C77.3508 123.317 77.3741 123.237 77.4207 123.187C77.4672 123.133 77.5388 123.106 77.6354 123.106H77.9845C78.1205 122.315 78.4302 121.721 78.9134 121.324C79.4003 120.926 80.0554 120.727 80.8787 120.727C81.1401 120.727 81.4103 120.756 81.6896 120.813C81.9724 120.871 82.2086 120.951 82.3984 121.055C82.5881 121.155 82.6829 121.268 82.6829 121.393C82.6829 121.483 82.6471 121.601 82.5756 121.748C82.504 121.891 82.418 122.018 82.3178 122.129C82.2212 122.24 82.1352 122.295 82.0601 122.295C82.0422 122.295 81.9974 122.278 81.9258 122.242C81.7826 122.17 81.6287 122.111 81.464 122.065C81.2994 122.014 81.0917 121.989 80.8411 121.989C80.1323 121.989 79.6867 122.362 79.5041 123.106H81.7916C81.8918 123.106 81.9634 123.131 82.0064 123.181C82.0529 123.232 82.0762 123.314 82.0762 123.428V123.493C82.0762 123.607 82.0529 123.692 82.0064 123.745C81.9634 123.795 81.8918 123.82 81.7916 123.82H79.4021C79.3985 123.888 79.3967 123.994 79.3967 124.137C79.3967 124.327 79.3985 124.463 79.4021 124.545H81.7916C81.8918 124.545 81.9634 124.57 82.0064 124.621C82.0529 124.671 82.0762 124.753 82.0762 124.868V124.937C82.0762 125.052 82.0529 125.136 82.0064 125.19C81.9634 125.24 81.8918 125.265 81.7916 125.265H79.5309C79.7314 125.963 80.1628 126.312 80.825 126.312C81.072 126.312 81.285 126.283 81.464 126.226C81.643 126.169 81.8274 126.095 82.0171 126.006C82.0278 126.002 82.0547 125.99 82.0977 125.968C82.1442 125.943 82.1782 125.931 82.1997 125.931C82.2963 125.931 82.3876 125.986 82.4735 126.097C82.5594 126.205 82.6292 126.326 82.6829 126.462C82.7366 126.598 82.7635 126.699 82.7635 126.763C82.7635 126.938 82.6561 127.087 82.4413 127.209C82.2265 127.33 81.967 127.422 81.6627 127.483C81.362 127.54 81.0828 127.568 80.825 127.568Z" fill="white"/>
<path d="M143.766 127.488C143.598 127.488 143.474 127.465 143.395 127.418C143.32 127.372 143.283 127.3 143.283 127.203V125.748H141.844C141.743 125.748 141.67 125.711 141.623 125.635C141.58 125.56 141.559 125.438 141.559 125.27V125.206C141.559 125.038 141.58 124.916 141.623 124.841C141.67 124.765 141.743 124.728 141.844 124.728H143.283V123.257C143.283 123.156 143.32 123.085 143.395 123.042C143.471 122.995 143.594 122.972 143.766 122.972H143.895C144.063 122.972 144.185 122.995 144.26 123.042C144.335 123.085 144.373 123.156 144.373 123.257V124.728H145.839C145.935 124.728 146.007 124.765 146.053 124.841C146.1 124.916 146.123 125.038 146.123 125.206V125.27C146.123 125.438 146.1 125.56 146.053 125.635C146.007 125.711 145.935 125.748 145.839 125.748H144.373V127.203C144.373 127.3 144.335 127.372 144.26 127.418C144.185 127.465 144.063 127.488 143.895 127.488H143.766ZM149.501 127.488C149.401 127.488 149.327 127.45 149.281 127.375C149.238 127.3 149.216 127.178 149.216 127.01V126.849C149.216 126.681 149.238 126.559 149.281 126.484C149.327 126.409 149.401 126.371 149.501 126.371H150.773V122.081L149.474 122.274C149.367 122.274 149.288 122.188 149.238 122.016C149.191 121.841 149.168 121.658 149.168 121.468C149.168 121.397 149.189 121.34 149.232 121.297C149.275 121.25 149.336 121.22 149.415 121.205L151.794 120.765C151.872 120.765 151.956 120.79 152.046 120.84C152.139 120.89 152.186 120.942 152.186 120.996V126.371H153.206C153.306 126.371 153.379 126.41 153.426 126.489C153.473 126.564 153.496 126.684 153.496 126.849V127.01C153.496 127.175 153.473 127.296 153.426 127.375C153.379 127.45 153.306 127.488 153.206 127.488H149.501ZM156.476 127.568C156.007 127.568 155.602 127.432 155.262 127.16C154.922 126.888 154.661 126.496 154.478 125.984C154.299 125.469 154.21 124.855 154.21 124.143C154.21 123.434 154.299 122.823 154.478 122.312C154.661 121.8 154.922 121.408 155.262 121.136C155.602 120.864 156.007 120.727 156.476 120.727C156.945 120.727 157.348 120.864 157.684 121.136C158.024 121.408 158.284 121.8 158.463 122.312C158.645 122.823 158.737 123.434 158.737 124.143C158.737 124.855 158.645 125.469 158.463 125.984C158.284 126.496 158.024 126.888 157.684 127.16C157.348 127.432 156.945 127.568 156.476 127.568ZM156.476 126.446C156.744 126.446 156.95 126.251 157.093 125.861C157.237 125.471 157.308 124.898 157.308 124.143C157.308 123.391 157.237 122.82 157.093 122.43C156.95 122.039 156.744 121.844 156.476 121.844C156.207 121.844 156.002 122.039 155.858 122.43C155.715 122.82 155.644 123.391 155.644 124.143C155.644 124.898 155.715 125.471 155.858 125.861C156.002 126.251 156.207 126.446 156.476 126.446ZM161.588 127.568C161.119 127.568 160.714 127.432 160.374 127.16C160.034 126.888 159.773 126.496 159.59 125.984C159.411 125.469 159.322 124.855 159.322 124.143C159.322 123.434 159.411 122.823 159.59 122.312C159.773 121.8 160.034 121.408 160.374 121.136C160.714 120.864 161.119 120.727 161.588 120.727C162.057 120.727 162.46 120.864 162.796 121.136C163.136 121.408 163.396 121.8 163.575 122.312C163.757 122.823 163.849 123.434 163.849 124.143C163.849 124.855 163.757 125.469 163.575 125.984C163.396 126.496 163.136 126.888 162.796 127.16C162.46 127.432 162.057 127.568 161.588 127.568ZM161.588 126.446C161.856 126.446 162.062 126.251 162.205 125.861C162.349 125.471 162.42 124.898 162.42 124.143C162.42 123.391 162.349 122.82 162.205 122.43C162.062 122.039 161.856 121.844 161.588 121.844C161.319 121.844 161.114 122.039 160.97 122.43C160.827 122.82 160.756 123.391 160.756 124.143C160.756 124.898 160.827 125.471 160.97 125.861C161.114 126.251 161.319 126.446 161.588 126.446ZM169.922 127.568C169.105 127.568 168.463 127.381 167.994 127.005C167.529 126.629 167.226 126.049 167.086 125.265H166.732C166.635 125.265 166.564 125.24 166.517 125.19C166.471 125.136 166.447 125.052 166.447 124.937V124.868C166.447 124.757 166.471 124.676 166.517 124.626C166.564 124.572 166.635 124.545 166.732 124.545H167.011C167.008 124.456 167.006 124.316 167.006 124.126C167.006 123.99 167.008 123.888 167.011 123.82H166.732C166.635 123.82 166.564 123.795 166.517 123.745C166.471 123.692 166.447 123.607 166.447 123.493V123.428C166.447 123.317 166.471 123.237 166.517 123.187C166.564 123.133 166.635 123.106 166.732 123.106H167.081C167.217 122.315 167.527 121.721 168.01 121.324C168.497 120.926 169.152 120.727 169.975 120.727C170.237 120.727 170.507 120.756 170.786 120.813C171.069 120.871 171.305 120.951 171.495 121.055C171.685 121.155 171.78 121.268 171.78 121.393C171.78 121.483 171.744 121.601 171.672 121.748C171.601 121.891 171.515 122.018 171.414 122.129C171.318 122.24 171.232 122.295 171.157 122.295C171.139 122.295 171.094 122.278 171.022 122.242C170.879 122.17 170.725 122.111 170.561 122.065C170.396 122.014 170.188 121.989 169.938 121.989C169.229 121.989 168.783 122.362 168.601 123.106H170.888C170.988 123.106 171.06 123.131 171.103 123.181C171.15 123.232 171.173 123.314 171.173 123.428V123.493C171.173 123.607 171.15 123.692 171.103 123.745C171.06 123.795 170.988 123.82 170.888 123.82H168.499C168.495 123.888 168.493 123.994 168.493 124.137C168.493 124.327 168.495 124.463 168.499 124.545H170.888C170.988 124.545 171.06 124.57 171.103 124.621C171.15 124.671 171.173 124.753 171.173 124.868V124.937C171.173 125.052 171.15 125.136 171.103 125.19C171.06 125.24 170.988 125.265 170.888 125.265H168.628C168.828 125.963 169.259 126.312 169.922 126.312C170.169 126.312 170.382 126.283 170.561 126.226C170.74 126.169 170.924 126.095 171.114 126.006C171.124 126.002 171.151 125.99 171.194 125.968C171.241 125.943 171.275 125.931 171.296 125.931C171.393 125.931 171.484 125.986 171.57 126.097C171.656 126.205 171.726 126.326 171.78 126.462C171.833 126.598 171.86 126.699 171.86 126.763C171.86 126.938 171.753 127.087 171.538 127.209C171.323 127.33 171.064 127.422 170.759 127.483C170.459 127.54 170.179 127.568 169.922 127.568ZM178.959 129.475C178.859 129.475 178.773 129.423 178.701 129.319C178.236 128.653 177.88 127.932 177.633 127.155C177.389 126.375 177.267 125.573 177.267 124.749C177.267 123.926 177.389 123.124 177.633 122.344C177.88 121.56 178.236 120.833 178.701 120.164C178.773 120.063 178.859 120.013 178.959 120.013C179.023 120.013 179.098 120.037 179.184 120.083C179.274 120.126 179.349 120.182 179.41 120.25C179.471 120.318 179.501 120.386 179.501 120.454C179.501 120.525 179.485 120.588 179.453 120.642C179.073 121.358 178.8 122.039 178.631 122.687C178.467 123.335 178.384 124.023 178.384 124.749C178.384 125.469 178.467 126.153 178.631 126.801C178.8 127.449 179.073 128.13 179.453 128.846C179.485 128.9 179.501 128.963 179.501 129.034C179.501 129.102 179.471 129.17 179.41 129.238C179.349 129.306 179.274 129.362 179.184 129.405C179.098 129.451 179.023 129.475 178.959 129.475ZM182.642 127.488C182.542 127.488 182.469 127.45 182.422 127.375C182.379 127.3 182.358 127.178 182.358 127.01V126.849C182.358 126.681 182.379 126.559 182.422 126.484C182.469 126.409 182.542 126.371 182.642 126.371H183.915V122.081L182.616 122.274C182.508 122.274 182.429 122.188 182.379 122.016C182.333 121.841 182.31 121.658 182.31 121.468C182.31 121.397 182.331 121.34 182.374 121.297C182.417 121.25 182.478 121.22 182.557 121.205L184.935 120.765C185.014 120.765 185.098 120.79 185.188 120.84C185.281 120.89 185.327 120.942 185.327 120.996V126.371H186.348C186.448 126.371 186.521 126.41 186.568 126.489C186.614 126.564 186.637 126.684 186.637 126.849V127.01C186.637 127.175 186.614 127.296 186.568 127.375C186.521 127.45 186.448 127.488 186.348 127.488H182.642ZM189.618 127.568C189.149 127.568 188.744 127.432 188.404 127.16C188.064 126.888 187.803 126.496 187.62 125.984C187.441 125.469 187.352 124.855 187.352 124.143C187.352 123.434 187.441 122.823 187.62 122.312C187.803 121.8 188.064 121.408 188.404 121.136C188.744 120.864 189.149 120.727 189.618 120.727C190.087 120.727 190.489 120.864 190.826 121.136C191.166 121.408 191.425 121.8 191.604 122.312C191.787 122.823 191.878 123.434 191.878 124.143C191.878 124.855 191.787 125.469 191.604 125.984C191.425 126.496 191.166 126.888 190.826 127.16C190.489 127.432 190.087 127.568 189.618 127.568ZM189.618 126.446C189.886 126.446 190.092 126.251 190.235 125.861C190.378 125.471 190.45 124.898 190.45 124.143C190.45 123.391 190.378 122.82 190.235 122.43C190.092 122.039 189.886 121.844 189.618 121.844C189.349 121.844 189.143 122.039 189 122.43C188.857 122.82 188.785 123.391 188.785 124.143C188.785 124.898 188.857 125.471 189 125.861C189.143 126.251 189.349 126.446 189.618 126.446ZM194.042 123.933C193.634 123.933 193.292 123.817 193.017 123.584C192.745 123.351 192.609 122.934 192.609 122.333C192.609 121.732 192.745 121.315 193.017 121.082C193.292 120.846 193.634 120.727 194.042 120.727C194.45 120.727 194.79 120.846 195.063 121.082C195.338 121.315 195.476 121.732 195.476 122.333C195.476 122.934 195.338 123.351 195.063 123.584C194.79 123.817 194.45 123.933 194.042 123.933ZM193.838 127.504C193.777 127.504 193.729 127.493 193.693 127.472C193.661 127.447 193.645 127.416 193.645 127.381C193.645 127.345 193.659 127.298 193.688 127.241L197.098 121.055C197.194 120.872 197.334 120.781 197.516 120.781H197.935C198 120.781 198.048 120.795 198.08 120.824C198.116 120.849 198.134 120.881 198.134 120.921C198.134 120.946 198.12 120.991 198.091 121.055L194.681 127.241C194.631 127.327 194.572 127.393 194.504 127.44C194.436 127.483 194.354 127.504 194.257 127.504H193.838ZM194.042 123.155C194.211 123.155 194.327 123.076 194.391 122.918C194.456 122.757 194.488 122.562 194.488 122.333C194.488 121.81 194.339 121.549 194.042 121.549C193.874 121.549 193.754 121.624 193.683 121.775C193.615 121.925 193.581 122.111 193.581 122.333C193.581 122.559 193.615 122.752 193.683 122.913C193.754 123.074 193.874 123.155 194.042 123.155ZM197.731 127.568C197.327 127.568 196.987 127.45 196.711 127.214C196.439 126.978 196.303 126.559 196.303 125.958C196.303 125.36 196.439 124.944 196.711 124.712C196.987 124.476 197.327 124.357 197.731 124.357C198.139 124.357 198.481 124.474 198.757 124.706C199.033 124.939 199.17 125.356 199.17 125.958C199.17 126.559 199.033 126.978 198.757 127.214C198.481 127.45 198.139 127.568 197.731 127.568ZM197.731 126.784C197.9 126.784 198.016 126.706 198.08 126.548C198.148 126.387 198.182 126.19 198.182 125.958C198.182 125.438 198.032 125.179 197.731 125.179C197.567 125.179 197.448 125.254 197.377 125.404C197.309 125.551 197.275 125.736 197.275 125.958C197.275 126.187 197.309 126.382 197.377 126.543C197.448 126.704 197.567 126.784 197.731 126.784ZM200.153 129.475C200.089 129.475 200.012 129.451 199.922 129.405C199.836 129.362 199.763 129.306 199.702 129.238C199.641 129.17 199.611 129.102 199.611 129.034C199.611 128.959 199.625 128.897 199.654 128.846C200.037 128.127 200.311 127.445 200.475 126.801C200.643 126.153 200.728 125.469 200.728 124.749C200.728 124.023 200.643 123.335 200.475 122.687C200.311 122.039 200.037 121.358 199.654 120.642C199.625 120.591 199.611 120.529 199.611 120.454C199.611 120.386 199.641 120.318 199.702 120.25C199.763 120.182 199.836 120.126 199.922 120.083C200.012 120.037 200.089 120.013 200.153 120.013C200.257 120.013 200.341 120.063 200.405 120.164C200.871 120.833 201.227 121.558 201.474 122.338C201.721 123.119 201.844 123.922 201.844 124.749C201.844 125.576 201.721 126.378 201.474 127.155C201.227 127.932 200.871 128.653 200.405 129.319C200.337 129.423 200.253 129.475 200.153 129.475Z" fill="#11D200"/>
<path d="M212.921 78.1581L243.618 76.1969L251.9 72.8985L260.099 72.8985L268.029 67.1041L272.8 69.0207L279.722 61.4879L293.701 59.8833L297.733 53.5539L305.663 61.4879L313.594 50.523L328.244 46.6897L334.024 43.0347L344.373 43.0347L353.11 40.0037L357.814 34.3876L366.148 31" stroke="#138B00" stroke-width="0.598861"/>
<defs>
<filter id="filter0_d_25_49" x="0.250721" y="0" width="403.499" height="181.069" filterUnits="userSpaceOnUse" color-interpolation-filters="sRGB">
<feFlood flood-opacity="0" result="BackgroundImageFix"/>
<feColorMatrix in="SourceAlpha" type="matrix" values="0 0 0 0 0 0 0 0 0 0 0 0 0 0 0 0 0 0 127 0" result="hardAlpha"/>
<feOffset dy="2.74928"/>
<feGaussianBlur stdDeviation="1.37464"/>
<feComposite in2="hardAlpha" operator="out"/>
<feColorMatrix type="matrix" values="0 0 0 0 0 0 0 0 0 0 0 0 0 0 0 0 0 0 0.25 0"/>
<feBlend mode="normal" in2="BackgroundImageFix" result="effect1_dropShadow_25_49"/>
<feBlend mode="normal" in="SourceGraphic" in2="effect1_dropShadow_25_49" result="shape"/>
</filter>
</defs>
</svg>
