<svg width="404" height="182" viewBox="0 0 404 182" fill="none" xmlns="http://www.w3.org/2000/svg">
<g filter="url(#filter0_d_25_49)">
<rect x="3" width="398" height="175.57" rx="19.245" fill="#1D1E23"/>
<rect x="3" width="398" height="175.57" rx="19.245" fill="#2C2C2C"/>
<rect x="3.34366" y="0.34366" width="397.313" height="174.883" rx="18.9013" stroke="black" stroke-width="0.68732"/>
</g>
<path d="M21.0047 83.436C20.778 83.436 20.6169 83.3585 20.5214 83.2033C20.426 83.0482 20.3782 82.8096 20.3782 82.4874V82.0936C20.3782 81.7595 20.426 81.5208 20.5214 81.3777C20.6169 81.2225 20.778 81.145 21.0047 81.145H26.5355V63.9799L20.9152 64.9464C20.7123 64.9464 20.5512 64.7674 20.4319 64.4094C20.3245 64.0395 20.2708 63.6756 20.2708 63.3176C20.2708 63.1506 20.3186 63.0253 20.414 62.9417C20.5095 62.8463 20.6586 62.7747 20.8615 62.7269L28.218 61.0802C28.4685 61.0802 28.6953 61.1518 28.8981 61.295C29.1129 61.4263 29.2203 61.5814 29.2203 61.7604V81.145H33.9277C34.3573 81.145 34.5721 81.4612 34.5721 82.0936V82.4874C34.5721 83.1198 34.3573 83.436 33.9277 83.436H21.0047ZM52.1668 83.615C50.8303 83.615 49.6191 83.2093 48.5333 82.3979C47.4474 81.5865 46.5763 80.3335 45.92 78.6391C45.2757 76.9447 44.9535 74.8266 44.9535 72.285C44.9535 69.7553 45.2757 67.6432 45.92 65.9488C46.5763 64.2543 47.4474 63.0014 48.5333 62.19C49.6191 61.3666 50.8303 60.9549 52.1668 60.9549C53.5032 60.9549 54.7203 61.3666 55.8181 62.19C56.9279 63.0014 57.8109 64.2543 58.4672 65.9488C59.1235 67.6432 59.4516 69.7553 59.4516 72.285C59.4516 74.8266 59.1235 76.9447 58.4672 78.6391C57.8109 80.3335 56.9279 81.5865 55.8181 82.3979C54.7203 83.2093 53.5032 83.615 52.1668 83.615ZM52.1668 81.324C52.9901 81.324 53.7419 81.0197 54.422 80.4111C55.1141 79.8025 55.675 78.8241 56.1045 77.4757C56.5341 76.1273 56.7489 74.3971 56.7489 72.285C56.7489 70.1848 56.5341 68.4606 56.1045 67.1122C55.675 65.7638 55.1141 64.7853 54.422 64.1768C53.7419 63.5563 52.9901 63.246 52.1668 63.246C51.3553 63.246 50.6036 63.5503 49.9115 64.1589C49.2313 64.7674 48.6824 65.7519 48.2648 67.1122C47.8471 68.4606 47.6383 70.1848 47.6383 72.285C47.6383 74.3971 47.8471 76.1273 48.2648 77.4757C48.6824 78.8241 49.2313 79.8025 49.9115 80.4111C50.6036 81.0197 51.3553 81.324 52.1668 81.324ZM69.2066 83.615C67.8701 83.615 66.6589 83.2093 65.5731 82.3979C64.4872 81.5865 63.6161 80.3335 62.9598 78.6391C62.3155 76.9447 61.9933 74.8266 61.9933 72.285C61.9933 69.7553 62.3155 67.6432 62.9598 65.9488C63.6161 64.2543 64.4872 63.0014 65.5731 62.19C66.6589 61.3666 67.8701 60.9549 69.2066 60.9549C70.543 60.9549 71.7601 61.3666 72.858 62.19C73.9677 63.0014 74.8507 64.2543 75.507 65.9488C76.1633 67.6432 76.4914 69.7553 76.4914 72.285C76.4914 74.8266 76.1633 76.9447 75.507 78.6391C74.8507 80.3335 73.9677 81.5865 72.858 82.3979C71.7601 83.2093 70.543 83.615 69.2066 83.615ZM69.2066 81.324C70.0299 81.324 70.7817 81.0197 71.4618 80.4111C72.1539 79.8025 72.7148 78.8241 73.1443 77.4757C73.5739 76.1273 73.7887 74.3971 73.7887 72.285C73.7887 70.1848 73.5739 68.4606 73.1443 67.1122C72.7148 65.7638 72.1539 64.7853 71.4618 64.1768C70.7817 63.5563 70.0299 63.246 69.2066 63.246C68.3951 63.246 67.6434 63.5503 66.9513 64.1589C66.2711 64.7674 65.7222 65.7519 65.3046 67.1122C64.887 68.4606 64.6781 70.1848 64.6781 72.285C64.6781 74.3971 64.887 76.1273 65.3046 77.4757C65.7222 78.8241 66.2711 79.8025 66.9513 80.4111C67.6434 81.0197 68.3951 81.324 69.2066 81.324ZM86.2464 83.615C84.9099 83.615 83.6988 83.2093 82.6129 82.3979C81.527 81.5865 80.6559 80.3335 79.9996 78.6391C79.3553 76.9447 79.0331 74.8266 79.0331 72.285C79.0331 69.7553 79.3553 67.6432 79.9996 65.9488C80.6559 64.2543 81.527 63.0014 82.6129 62.19C83.6988 61.3666 84.9099 60.9549 86.2464 60.9549C87.5828 60.9549 88.8 61.3666 89.8978 62.19C91.0075 63.0014 91.8905 64.2543 92.5468 65.9488C93.2031 67.6432 93.5312 69.7553 93.5312 72.285C93.5312 74.8266 93.2031 76.9447 92.5468 78.6391C91.8905 80.3335 91.0075 81.5865 89.8978 82.3979C88.8 83.2093 87.5828 83.615 86.2464 83.615ZM86.2464 81.324C87.0697 81.324 87.8215 81.0197 88.5016 80.4111C89.1937 79.8025 89.7546 78.8241 90.1841 77.4757C90.6137 76.1273 90.8285 74.3971 90.8285 72.285C90.8285 70.1848 90.6137 68.4606 90.1841 67.1122C89.7546 65.7638 89.1937 64.7853 88.5016 64.1768C87.8215 63.5563 87.0697 63.246 86.2464 63.246C85.435 63.246 84.6832 63.5503 83.9911 64.1589C83.3109 64.7674 82.762 65.7519 82.3444 67.1122C81.9268 68.4606 81.7179 70.1848 81.7179 72.285C81.7179 74.3971 81.9268 76.1273 82.3444 77.4757C82.762 78.8241 83.3109 79.8025 83.9911 80.4111C84.6832 81.0197 85.435 81.324 86.2464 81.324ZM114.026 83.615C111.388 83.615 109.3 82.9826 107.761 81.7177C106.222 80.4529 105.255 78.5198 104.861 75.9185H103.125C102.898 75.9185 102.731 75.8469 102.624 75.7037C102.528 75.5605 102.481 75.3159 102.481 74.9698V74.7371C102.481 74.415 102.528 74.1763 102.624 74.0212C102.731 73.8661 102.898 73.7885 103.125 73.7885H104.682C104.658 73.4783 104.646 72.9771 104.646 72.285C104.646 71.6406 104.658 71.1574 104.682 70.8352H103.125C102.898 70.8352 102.731 70.7636 102.624 70.6204C102.528 70.4653 102.481 70.2147 102.481 69.8686V69.6538C102.481 69.3197 102.528 69.0751 102.624 68.92C102.731 68.7649 102.898 68.6873 103.125 68.6873H104.933C105.362 66.1456 106.377 64.2245 107.976 62.9238C109.575 61.6112 111.615 60.9549 114.097 60.9549C115.004 60.9549 115.875 61.0623 116.71 61.2771C117.558 61.48 118.238 61.7365 118.751 62.0468C119.276 62.357 119.538 62.6553 119.538 62.9417C119.538 63.1088 119.473 63.3355 119.342 63.6219C119.222 63.8963 119.073 64.141 118.894 64.3557C118.727 64.5586 118.578 64.66 118.447 64.66C118.387 64.66 118.256 64.5944 118.053 64.4631C117.516 64.129 116.937 63.8426 116.317 63.604C115.696 63.3653 114.932 63.246 114.026 63.246C112.295 63.246 110.905 63.6756 109.855 64.5347C108.817 65.3939 108.119 66.7781 107.761 68.6873H116.621C117.05 68.6873 117.265 69.0095 117.265 69.6538V69.8686C117.265 70.2027 117.212 70.4474 117.104 70.6025C116.997 70.7576 116.836 70.8352 116.621 70.8352H107.51C107.498 71.1574 107.492 71.6526 107.492 72.3208C107.492 73.0129 107.498 73.5021 107.51 73.7885H116.621C117.05 73.7885 117.265 74.1047 117.265 74.7371V74.9698C117.265 75.3039 117.212 75.5486 117.104 75.7037C116.997 75.8469 116.836 75.9185 116.621 75.9185H107.761C108.107 77.7561 108.811 79.1164 109.873 79.9994C110.935 80.8825 112.236 81.324 113.775 81.324C114.753 81.324 115.595 81.1987 116.299 80.9481C117.003 80.6856 117.683 80.3693 118.339 79.9994C118.387 79.9756 118.476 79.9278 118.608 79.8562C118.739 79.7846 118.828 79.7489 118.876 79.7489C119.007 79.7489 119.157 79.8562 119.324 80.071C119.503 80.2739 119.658 80.5066 119.789 80.7691C119.92 81.0197 119.986 81.2046 119.986 81.324C119.986 81.6223 119.711 81.9564 119.163 82.3263C118.614 82.6843 117.88 82.9886 116.961 83.2391C116.054 83.4897 115.076 83.615 114.026 83.615Z" fill="white"/>
<path d="M20.4901 47.0201C20.3245 47.0201 20.2037 47 20.1276 46.9597C20.056 46.915 20.0202 46.8479 20.0202 46.7584V39.0059C20.0202 38.8761 20.0471 38.7844 20.1008 38.7307C20.159 38.677 20.2507 38.6501 20.376 38.6501H22.7923C23.4904 38.6501 24.1079 38.8179 24.6449 39.1535C25.1863 39.4847 25.457 40.0955 25.457 40.986C25.457 41.6482 25.3027 42.1628 24.9939 42.5297C24.6852 42.8922 24.3384 43.1361 23.9535 43.2614C23.5687 43.3822 23.2219 43.4426 22.9132 43.4426H21.0606V46.7584C21.0606 46.8479 21.0226 46.915 20.9465 46.9597C20.8704 47 20.7519 47.0201 20.5908 47.0201H20.4901ZM22.9266 42.5364C23.1279 42.5364 23.3383 42.4939 23.5575 42.4089C23.7768 42.3194 23.967 42.1606 24.1281 41.9324C24.2891 41.6997 24.3697 41.3842 24.3697 40.986C24.3697 40.4535 24.2108 40.0821 23.8931 39.8717C23.5799 39.6614 23.2018 39.5563 22.7588 39.5563H21.0606V42.5364H22.9266ZM29.2293 47.0671C28.3298 47.0671 27.643 46.7986 27.1686 46.2617C26.6988 45.7202 26.4639 44.9349 26.4639 43.9057C26.4639 42.8765 26.7033 42.0845 27.1821 41.5296C27.6609 40.9703 28.3433 40.6906 29.2293 40.6906C30.1063 40.6906 30.7775 40.9681 31.2429 41.5229C31.7083 42.0733 31.9409 42.8676 31.9409 43.9057C31.9409 44.9394 31.7105 45.7247 31.2496 46.2617C30.7932 46.7986 30.1197 47.0671 29.2293 47.0671ZM29.1957 46.208C29.7774 46.208 30.207 46.02 30.4844 45.6442C30.7619 45.2638 30.9006 44.6776 30.9006 43.8856C30.9006 43.0891 30.7619 42.5007 30.4844 42.1203C30.207 41.7399 29.7774 41.5498 29.1957 41.5498C28.6185 41.5498 28.1934 41.7399 27.9204 42.1203C27.6474 42.4962 27.511 43.0846 27.511 43.8856C27.511 44.6821 27.6452 45.2683 27.9137 45.6442C28.1866 46.02 28.614 46.208 29.1957 46.208ZM34.1559 47.0201C33.9859 47.0201 33.8628 47 33.7868 46.9597C33.7107 46.915 33.6727 46.8479 33.6727 46.7584V42.57C33.6727 42.0509 33.6481 41.6773 33.5988 41.4491C33.5496 41.2164 33.525 41.0889 33.525 41.0665C33.525 40.9681 33.5988 40.8987 33.7465 40.8584C33.8986 40.8137 34.0418 40.7913 34.1761 40.7913C34.2835 40.7913 34.364 40.8495 34.4177 40.9658C34.4714 41.0777 34.5184 41.2365 34.5587 41.4424L34.5922 41.5833C35.0173 40.9882 35.4782 40.6906 35.9749 40.6906C36.2031 40.6906 36.3754 40.7331 36.4918 40.8181C36.6081 40.8987 36.6663 41.0083 36.6663 41.147C36.6663 41.2813 36.6417 41.4245 36.5924 41.5766C36.5477 41.7243 36.494 41.7981 36.4313 41.7981C36.4 41.7981 36.3441 41.7847 36.2635 41.7578C36.1919 41.7265 36.1203 41.7041 36.0488 41.6907C35.9772 41.6728 35.8854 41.6639 35.7736 41.6639C35.5901 41.6639 35.4156 41.7176 35.25 41.825C35.0889 41.9324 34.9524 42.0509 34.8406 42.1807C34.7287 42.3105 34.6728 42.3821 34.6728 42.3955V46.7584C34.6728 46.8479 34.6347 46.915 34.5587 46.9597C34.4826 47 34.364 47.0201 34.2029 47.0201H34.1559ZM39.7807 47.0671C39.3824 47.0671 39.0267 46.9463 38.7135 46.7047C38.4002 46.463 38.2436 46.0357 38.2436 45.4227V41.6169H37.6462C37.5612 41.6169 37.4986 41.59 37.4583 41.5363C37.4225 41.4782 37.4046 41.3864 37.4046 41.2611V41.1135C37.4046 40.9882 37.4225 40.8987 37.4583 40.845C37.4986 40.7868 37.5612 40.7577 37.6462 40.7577H38.2436L38.3846 39.5093C38.3935 39.3348 38.521 39.2475 38.7672 39.2475H38.8813C39.0066 39.2475 39.0983 39.2699 39.1565 39.3146C39.2146 39.3549 39.2437 39.4198 39.2437 39.5093V40.7577H40.2438C40.3288 40.7577 40.3893 40.7868 40.425 40.845C40.4653 40.8987 40.4855 40.9882 40.4855 41.1135V41.2611C40.4855 41.3864 40.4653 41.4782 40.425 41.5363C40.3893 41.59 40.3288 41.6169 40.2438 41.6169H39.2437V45.3287C39.2437 45.6553 39.2997 45.8836 39.4115 46.0133C39.5279 46.1431 39.6845 46.208 39.8814 46.208C40.0335 46.208 40.1499 46.199 40.2304 46.1811C40.3154 46.1632 40.3714 46.1543 40.3982 46.1543C40.4698 46.1543 40.528 46.2259 40.5727 46.3691C40.6219 46.5123 40.6465 46.6264 40.6465 46.7114C40.6465 46.9485 40.3579 47.0671 39.7807 47.0671ZM42.8213 47.0201C42.6557 47.0201 42.5349 47 42.4588 46.9597C42.3827 46.915 42.3447 46.8479 42.3447 46.7584V41.6169H41.8682C41.7071 41.6169 41.6265 41.4983 41.6265 41.2611V41.1135C41.6265 40.8763 41.7071 40.7577 41.8682 40.7577H42.3447V39.6234C42.3447 38.9969 42.4991 38.5674 42.8078 38.3347C43.1211 38.0975 43.4791 37.9789 43.8818 37.9789C44.4635 37.9789 44.7544 38.0997 44.7544 38.3414C44.7544 38.3817 44.7432 38.4488 44.7208 38.5427C44.7029 38.6322 44.6738 38.7128 44.6335 38.7844C44.5977 38.856 44.5552 38.8918 44.506 38.8918C44.4792 38.8918 44.4232 38.8828 44.3382 38.8649C44.2532 38.847 44.1368 38.8381 43.9892 38.8381C43.8549 38.8381 43.7408 38.8582 43.6469 38.8985C43.5574 38.9388 43.4835 39.0238 43.4254 39.1535C43.3717 39.2833 43.3448 39.4713 43.3448 39.7174V40.7577H44.3852C44.4702 40.7577 44.5306 40.7868 44.5664 40.845C44.6067 40.8987 44.6268 40.9882 44.6268 41.1135V41.2611C44.6268 41.3864 44.6067 41.4782 44.5664 41.5363C44.5306 41.59 44.4702 41.6169 44.3852 41.6169H43.3448V46.7584C43.3448 46.8479 43.3068 46.915 43.2307 46.9597C43.1546 47 43.0361 47.0201 42.875 47.0201H42.8213ZM48.3588 47.0671C47.4593 47.0671 46.7725 46.7986 46.2981 46.2617C45.8283 45.7202 45.5934 44.9349 45.5934 43.9057C45.5934 42.8765 45.8328 42.0845 46.3116 41.5296C46.7904 40.9703 47.4728 40.6906 48.3588 40.6906C49.2358 40.6906 49.907 40.9681 50.3724 41.5229C50.8378 42.0733 51.0705 42.8676 51.0705 43.9057C51.0705 44.9394 50.84 45.7247 50.3791 46.2617C49.9227 46.7986 49.2492 47.0671 48.3588 47.0671ZM48.3252 46.208C48.9069 46.208 49.3365 46.02 49.6139 45.6442C49.8914 45.2638 50.0301 44.6776 50.0301 43.8856C50.0301 43.0891 49.8914 42.5007 49.6139 42.1203C49.3365 41.7399 48.9069 41.5498 48.3252 41.5498C47.748 41.5498 47.3229 41.7399 47.0499 42.1203C46.7769 42.4962 46.6405 43.0846 46.6405 43.8856C46.6405 44.6821 46.7747 45.2683 47.0432 45.6442C47.3161 46.02 47.7435 46.208 48.3252 46.208ZM54.2453 47.0671C53.847 47.0671 53.4913 46.9463 53.1781 46.7047C52.8648 46.463 52.7082 46.0357 52.7082 45.4227V38.2877C52.7082 38.1132 52.8671 38.0259 53.1848 38.0259H53.2385C53.5517 38.0259 53.7083 38.1132 53.7083 38.2877V45.3287C53.7083 45.6553 53.7665 45.8836 53.8828 46.0133C53.9992 46.1431 54.1558 46.208 54.3527 46.208C54.5003 46.208 54.6167 46.199 54.7017 46.1811C54.7867 46.1632 54.8427 46.1543 54.8695 46.1543C54.9411 46.1543 54.9993 46.2259 55.044 46.3691C55.0932 46.5123 55.1179 46.6264 55.1179 46.7114C55.1179 46.9485 54.827 47.0671 54.2453 47.0671ZM56.8026 39.2542C56.4849 39.2542 56.326 39.167 56.326 38.9925V38.2877C56.326 38.1132 56.4849 38.0259 56.8026 38.0259H56.9435C57.2657 38.0259 57.4268 38.1132 57.4268 38.2877V38.9925C57.4268 39.167 57.2657 39.2542 56.9435 39.2542H56.8026ZM56.8496 47.0201C56.5319 47.0201 56.373 46.9329 56.373 46.7584V40.9994C56.373 40.8249 56.5319 40.7376 56.8496 40.7376H56.8966C57.2187 40.7376 57.3798 40.8249 57.3798 40.9994V46.7584C57.3798 46.9329 57.2187 47.0201 56.8966 47.0201H56.8496ZM61.8769 47.0671C60.9775 47.0671 60.2906 46.7986 59.8163 46.2617C59.3465 45.7202 59.1116 44.9349 59.1116 43.9057C59.1116 42.8765 59.351 42.0845 59.8298 41.5296C60.3085 40.9703 60.9909 40.6906 61.8769 40.6906C62.754 40.6906 63.4252 40.9681 63.8906 41.5229C64.3559 42.0733 64.5886 42.8676 64.5886 43.9057C64.5886 44.9394 64.3582 45.7247 63.8973 46.2617C63.4409 46.7986 62.7674 47.0671 61.8769 47.0671ZM61.8434 46.208C62.4251 46.208 62.8547 46.02 63.1321 45.6442C63.4095 45.2638 63.5483 44.6776 63.5483 43.8856C63.5483 43.0891 63.4095 42.5007 63.1321 42.1203C62.8547 41.7399 62.4251 41.5498 61.8434 41.5498C61.2661 41.5498 60.841 41.7399 60.5681 42.1203C60.2951 42.4962 60.1586 43.0846 60.1586 43.8856C60.1586 44.6821 60.2929 45.2683 60.5614 45.6442C60.8343 46.02 61.2617 46.208 61.8434 46.208Z" fill="white"/>
<path d="M20.176 105.415C19.9827 105.415 19.8377 105.388 19.741 105.334C19.6479 105.281 19.6014 105.204 19.6014 105.104V98.9928C19.6014 98.7816 19.7929 98.676 20.176 98.676H20.5089C20.7058 98.676 20.849 98.7029 20.9385 98.7566C21.0315 98.8103 21.0781 98.889 21.0781 98.9928V105.104C21.0781 105.311 20.8883 105.415 20.5089 105.415H20.176ZM22.9306 105.404C22.5476 105.404 22.3561 105.304 22.3561 105.104V98.9928C22.3561 98.889 22.4026 98.812 22.4957 98.7619C22.5887 98.7082 22.7337 98.6814 22.9306 98.6814H23.3387C23.4926 98.6814 23.6197 98.6993 23.72 98.7351C23.8202 98.7709 23.9025 98.8407 23.967 98.9445L26.2222 102.419L26.48 102.805V98.9928C26.48 98.889 26.5265 98.812 26.6196 98.7619C26.7127 98.7082 26.8576 98.6814 27.0545 98.6814H27.3284C27.5253 98.6814 27.6685 98.7082 27.758 98.7619C27.851 98.812 27.8976 98.889 27.8976 98.9928V105.104C27.8976 105.304 27.7078 105.404 27.3284 105.404H26.9632C26.8057 105.404 26.6787 105.388 26.582 105.356C26.4853 105.32 26.4048 105.252 26.3404 105.152L23.9777 101.538L23.7737 101.237V105.104C23.7737 105.304 23.5839 105.404 23.2045 105.404H22.9306ZM31.2429 105.404C31.089 105.404 30.9672 105.39 30.8777 105.361C30.7883 105.329 30.7328 105.277 30.7113 105.206L28.6493 99.068C28.6207 98.9821 28.6064 98.9248 28.6064 98.8962C28.6064 98.753 28.8015 98.6814 29.1917 98.6814H29.5031C29.8217 98.6814 30.0096 98.7762 30.0669 98.966L31.3556 103.095L31.463 103.428H31.5006L31.608 103.095L32.929 98.966C32.9934 98.7762 33.1831 98.6814 33.4982 98.6814H33.7881C34.1712 98.6814 34.3627 98.753 34.3627 98.8962C34.3627 98.9606 34.3519 99.0179 34.3305 99.068L32.2685 105.206C32.247 105.277 32.1897 105.329 32.0967 105.361C32.0072 105.39 31.8872 105.404 31.7369 105.404H31.2429ZM35.4957 105.388C35.3632 105.388 35.2666 105.358 35.2057 105.297C35.1449 105.236 35.1144 105.139 35.1144 105.007V99.0841C35.1144 98.9517 35.1449 98.8568 35.2057 98.7995C35.2666 98.7387 35.3632 98.7082 35.4957 98.7082H38.9913C39.0916 98.7082 39.1632 98.7458 39.2061 98.821C39.2527 98.8962 39.2759 99.0179 39.2759 99.1861V99.4761C39.2759 99.6443 39.2527 99.7661 39.2061 99.8412C39.1632 99.9164 39.0916 99.954 38.9913 99.954H36.5857V101.339H38.7336C38.8338 101.339 38.9054 101.377 38.9484 101.452C38.9949 101.527 39.0182 101.649 39.0182 101.817V102.113C39.0182 102.281 38.9949 102.403 38.9484 102.478C38.9054 102.553 38.8338 102.591 38.7336 102.591H36.5857V104.137H38.9967C39.0969 104.137 39.1685 104.175 39.2115 104.25C39.258 104.325 39.2813 104.445 39.2813 104.61V104.91C39.2813 105.078 39.258 105.2 39.2115 105.275C39.1685 105.351 39.0969 105.388 38.9967 105.388H35.4957ZM42.1272 105.469C41.6762 105.469 41.2788 105.424 40.9352 105.334C40.5951 105.241 40.3338 105.129 40.1512 104.996C39.9722 104.864 39.8827 104.738 39.8827 104.62C39.8827 104.527 39.9167 104.413 39.9847 104.277C40.0563 104.141 40.1405 104.024 40.2371 103.928C40.3338 103.827 40.4143 103.777 40.4787 103.777C40.5181 103.777 40.6022 103.811 40.7311 103.879C40.9244 103.979 41.107 104.06 41.2788 104.121C41.4542 104.182 41.6547 104.212 41.8802 104.212C42.1308 104.212 42.342 104.164 42.5139 104.067C42.6893 103.967 42.777 103.793 42.777 103.546C42.777 103.403 42.7322 103.28 42.6427 103.176C42.5532 103.072 42.4387 102.984 42.2991 102.913C42.1595 102.841 41.9697 102.757 41.7299 102.66L41.3057 102.478C41.0479 102.352 40.826 102.215 40.6398 102.064C40.4573 101.914 40.3069 101.715 40.1888 101.468C40.0742 101.221 40.017 100.919 40.017 100.561C40.017 100.124 40.1243 99.7607 40.3391 99.4707C40.5539 99.1808 40.8331 98.9678 41.1768 98.8317C41.5205 98.6957 41.8892 98.6277 42.283 98.6277C42.6051 98.6277 42.8969 98.6617 43.1582 98.7297C43.4195 98.7941 43.6236 98.8783 43.7704 98.9821C43.9207 99.0859 43.9959 99.1897 43.9959 99.2935C43.9959 99.3794 43.9673 99.4904 43.91 99.6264C43.8563 99.7589 43.7883 99.8752 43.7059 99.9755C43.6236 100.076 43.5466 100.126 43.475 100.126C43.4428 100.126 43.3855 100.108 43.3032 100.072C43.1707 100.018 43.0365 99.9755 42.9005 99.9433C42.768 99.9075 42.6051 99.8896 42.4118 99.8896C42.0789 99.8896 41.848 99.9433 41.7191 100.051C41.5903 100.154 41.5258 100.278 41.5258 100.421C41.5258 100.586 41.5688 100.724 41.6547 100.835C41.7442 100.946 41.8552 101.037 41.9876 101.108C42.1237 101.18 42.3116 101.262 42.5514 101.355C42.913 101.509 43.2083 101.656 43.4374 101.796C43.6665 101.932 43.8634 102.129 44.0281 102.386C44.1964 102.644 44.2805 102.974 44.2805 103.374C44.2805 103.865 44.1767 104.268 43.969 104.583C43.765 104.894 43.5001 105.12 43.1743 105.259C42.8521 105.399 42.5031 105.469 42.1272 105.469ZM46.9063 105.404C46.5232 105.404 46.3317 105.304 46.3317 105.104V99.954H44.8175C44.7172 99.954 44.6438 99.9164 44.5973 99.8412C44.5543 99.7661 44.5329 99.6443 44.5329 99.4761V99.1861C44.5329 99.0179 44.5543 98.8962 44.5973 98.821C44.6438 98.7458 44.7172 98.7082 44.8175 98.7082H49.3334C49.4336 98.7082 49.5052 98.7458 49.5481 98.821C49.5947 98.8962 49.618 99.0179 49.618 99.1861V99.4761C49.618 99.6443 49.5947 99.7661 49.5481 99.8412C49.5052 99.9164 49.4336 99.954 49.3334 99.954H47.8137V105.104C47.8137 105.304 47.6222 105.404 47.2392 105.404H46.9063ZM50.7348 105.388C50.6024 105.388 50.5057 105.358 50.4449 105.297C50.384 105.236 50.3536 105.139 50.3536 105.007V99.0841C50.3536 98.9517 50.384 98.8568 50.4449 98.7995C50.5057 98.7387 50.6024 98.7082 50.7348 98.7082H54.2305C54.3307 98.7082 54.4023 98.7458 54.4453 98.821C54.4918 98.8962 54.5151 99.0179 54.5151 99.1861V99.4761C54.5151 99.6443 54.4918 99.7661 54.4453 99.8412C54.4023 99.9164 54.3307 99.954 54.2305 99.954H51.8249V101.339H53.9728C54.073 101.339 54.1446 101.377 54.1876 101.452C54.2341 101.527 54.2574 101.649 54.2574 101.817V102.113C54.2574 102.281 54.2341 102.403 54.1876 102.478C54.1446 102.553 54.073 102.591 53.9728 102.591H51.8249V104.137H54.2359C54.3361 104.137 54.4077 104.175 54.4507 104.25C54.4972 104.325 54.5205 104.445 54.5205 104.61V104.91C54.5205 105.078 54.4972 105.2 54.4507 105.275C54.4077 105.351 54.3361 105.388 54.2359 105.388H50.7348ZM55.9542 105.388C55.8217 105.388 55.7251 105.358 55.6642 105.297C55.6034 105.236 55.5729 105.139 55.5729 105.007V99.0841C55.5729 98.9517 55.6034 98.8568 55.6642 98.7995C55.7251 98.7387 55.8217 98.7082 55.9542 98.7082H58.0913C58.7464 98.7082 59.3013 98.8371 59.7559 99.0948C60.2141 99.349 60.5596 99.7249 60.7923 100.222C61.0285 100.72 61.1467 101.327 61.1467 102.043C61.1467 102.762 61.0285 103.371 60.7923 103.869C60.5596 104.366 60.2141 104.744 59.7559 105.002C59.3013 105.259 58.7464 105.388 58.0913 105.388H55.9542ZM58.0913 104.137C58.5996 104.137 58.9845 103.96 59.2458 103.605C59.5071 103.247 59.6378 102.727 59.6378 102.043C59.6378 101.363 59.5071 100.845 59.2458 100.491C58.9845 100.133 58.5996 99.954 58.0913 99.954H57.055V104.137H58.0913Z" fill="white"/>
<path d="M125.235 106.016C124.852 106.016 124.66 105.916 124.66 105.715V99.696C124.66 99.5635 124.691 99.4687 124.752 99.4114C124.813 99.3505 124.909 99.3201 125.042 99.3201H126.905C128.487 99.3201 129.278 99.9161 129.278 101.108C129.278 101.47 129.176 101.781 128.972 102.043C128.772 102.304 128.502 102.499 128.162 102.628V102.665C128.28 102.716 128.403 102.823 128.532 102.988C128.664 103.152 128.77 103.338 128.849 103.546L129.692 105.646C129.721 105.732 129.735 105.792 129.735 105.828C129.735 105.953 129.545 106.016 129.166 106.016H128.774C128.455 106.016 128.271 105.95 128.221 105.817L127.463 103.954C127.392 103.811 127.322 103.7 127.254 103.621C127.19 103.542 127.098 103.483 126.98 103.444C126.862 103.401 126.703 103.38 126.502 103.38H126.132V105.715C126.132 105.916 125.94 106.016 125.557 106.016H125.235ZM127.034 102.112C127.163 102.112 127.284 102.077 127.399 102.005C127.514 101.93 127.605 101.83 127.673 101.704C127.741 101.579 127.775 101.441 127.775 101.291C127.775 101.069 127.702 100.893 127.555 100.765C127.412 100.632 127.216 100.566 126.969 100.566H126.132V102.112H127.034ZM130.873 106C130.741 106 130.644 105.97 130.583 105.909C130.522 105.848 130.492 105.751 130.492 105.619V99.696C130.492 99.5635 130.522 99.4687 130.583 99.4114C130.644 99.3505 130.741 99.3201 130.873 99.3201H134.369C134.469 99.3201 134.541 99.3577 134.584 99.4329C134.63 99.508 134.653 99.6298 134.653 99.798V100.088C134.653 100.256 134.63 100.378 134.584 100.453C134.541 100.528 134.469 100.566 134.369 100.566H131.963V101.951H134.111C134.211 101.951 134.283 101.989 134.326 102.064C134.372 102.139 134.396 102.261 134.396 102.429V102.724C134.396 102.893 134.372 103.014 134.326 103.09C134.283 103.165 134.211 103.202 134.111 103.202H131.963V104.749H134.374C134.474 104.749 134.546 104.786 134.589 104.862C134.636 104.937 134.659 105.057 134.659 105.221V105.522C134.659 105.69 134.636 105.812 134.589 105.887C134.546 105.962 134.474 106 134.374 106H130.873ZM137.505 106.016C137.122 106.016 136.93 105.916 136.93 105.715V100.566H135.416C135.316 100.566 135.242 100.528 135.196 100.453C135.153 100.378 135.131 100.256 135.131 100.088V99.798C135.131 99.6298 135.153 99.508 135.196 99.4329C135.242 99.3577 135.316 99.3201 135.416 99.3201H139.932C140.032 99.3201 140.104 99.3577 140.147 99.4329C140.193 99.508 140.216 99.6298 140.216 99.798V100.088C140.216 100.256 140.193 100.378 140.147 100.453C140.104 100.528 140.032 100.566 139.932 100.566H138.412V105.715C138.412 105.916 138.221 106.016 137.838 106.016H137.505ZM143.691 106.081C143.111 106.081 142.613 105.989 142.198 105.807C141.786 105.624 141.471 105.361 141.253 105.017C141.034 104.67 140.925 104.253 140.925 103.766V99.6047C140.925 99.5009 140.972 99.4239 141.065 99.3738C141.158 99.3201 141.303 99.2933 141.5 99.2933H141.822C142.019 99.2933 142.162 99.3201 142.252 99.3738C142.345 99.4239 142.391 99.5009 142.391 99.6047V103.67C142.391 103.892 142.445 104.09 142.552 104.266C142.663 104.441 142.817 104.579 143.014 104.679C143.211 104.776 143.436 104.824 143.691 104.824C143.945 104.824 144.17 104.776 144.367 104.679C144.568 104.579 144.723 104.441 144.834 104.266C144.945 104.09 145.001 103.892 145.001 103.67V99.6047C145.001 99.5009 145.046 99.4239 145.135 99.3738C145.228 99.3201 145.373 99.2933 145.57 99.2933H145.887C146.084 99.2933 146.227 99.3201 146.316 99.3738C146.409 99.4239 146.456 99.5009 146.456 99.6047V103.766C146.456 104.253 146.347 104.67 146.128 105.017C145.91 105.361 145.593 105.624 145.178 105.807C144.766 105.989 144.271 106.081 143.691 106.081ZM148.325 106.016C147.942 106.016 147.75 105.916 147.75 105.715V99.696C147.75 99.5635 147.781 99.4687 147.841 99.4114C147.902 99.3505 147.999 99.3201 148.131 99.3201H149.995C151.577 99.3201 152.368 99.9161 152.368 101.108C152.368 101.47 152.266 101.781 152.062 102.043C151.862 102.304 151.591 102.499 151.251 102.628V102.665C151.369 102.716 151.493 102.823 151.622 102.988C151.754 103.152 151.86 103.338 151.938 103.546L152.782 105.646C152.81 105.732 152.824 105.792 152.824 105.828C152.824 105.953 152.635 106.016 152.255 106.016H151.863C151.545 106.016 151.36 105.95 151.31 105.817L150.553 103.954C150.482 103.811 150.412 103.7 150.344 103.621C150.279 103.542 150.188 103.483 150.07 103.444C149.952 103.401 149.792 103.38 149.592 103.38H149.221V105.715C149.221 105.916 149.03 106.016 148.647 106.016H148.325ZM150.124 102.112C150.252 102.112 150.374 102.077 150.489 102.005C150.603 101.93 150.695 101.83 150.763 101.704C150.831 101.579 150.865 101.441 150.865 101.291C150.865 101.069 150.791 100.893 150.644 100.765C150.501 100.632 150.306 100.566 150.059 100.566H149.221V102.112H150.124ZM154.156 106.016C153.773 106.016 153.582 105.916 153.582 105.715V99.6047C153.582 99.5009 153.628 99.4239 153.721 99.3738C153.814 99.3201 153.959 99.2933 154.156 99.2933H154.564C154.718 99.2933 154.845 99.3112 154.946 99.347C155.046 99.3828 155.128 99.4526 155.193 99.5564L157.448 103.031L157.706 103.417V99.6047C157.706 99.5009 157.752 99.4239 157.845 99.3738C157.938 99.3201 158.083 99.2933 158.28 99.2933H158.554C158.751 99.2933 158.894 99.3201 158.984 99.3738C159.077 99.4239 159.123 99.5009 159.123 99.6047V105.715C159.123 105.916 158.933 106.016 158.554 106.016H158.189C158.031 106.016 157.904 106 157.808 105.968C157.711 105.932 157.63 105.864 157.566 105.764L155.203 102.15L154.999 101.849V105.715C154.999 105.916 154.809 106.016 154.43 106.016H154.156ZM160.825 106C160.693 106 160.596 105.97 160.535 105.909C160.474 105.848 160.444 105.751 160.444 105.619V99.696C160.444 99.5635 160.474 99.4687 160.535 99.4114C160.596 99.3505 160.693 99.3201 160.825 99.3201H164.321C164.421 99.3201 164.493 99.3577 164.536 99.4329C164.582 99.508 164.606 99.6298 164.606 99.798V100.088C164.606 100.256 164.582 100.378 164.536 100.453C164.493 100.528 164.421 100.566 164.321 100.566H161.915V101.951H164.063C164.163 101.951 164.235 101.989 164.278 102.064C164.325 102.139 164.348 102.261 164.348 102.429V102.724C164.348 102.893 164.325 103.014 164.278 103.09C164.235 103.165 164.163 103.202 164.063 103.202H161.915V104.749H164.326C164.427 104.749 164.498 104.786 164.541 104.862C164.588 104.937 164.611 105.057 164.611 105.221V105.522C164.611 105.69 164.588 105.812 164.541 105.887C164.498 105.962 164.427 106 164.326 106H160.825ZM166.045 106C165.912 106 165.816 105.97 165.755 105.909C165.694 105.848 165.663 105.751 165.663 105.619V99.696C165.663 99.5635 165.694 99.4687 165.755 99.4114C165.816 99.3505 165.912 99.3201 166.045 99.3201H168.182C168.837 99.3201 169.392 99.449 169.846 99.7067C170.305 99.9609 170.65 100.337 170.883 100.834C171.119 101.332 171.237 101.939 171.237 102.655C171.237 103.374 171.119 103.983 170.883 104.48C170.65 104.978 170.305 105.356 169.846 105.613C169.392 105.871 168.837 106 168.182 106H166.045ZM168.182 104.749C168.69 104.749 169.075 104.572 169.336 104.217C169.598 103.859 169.728 103.338 169.728 102.655C169.728 101.975 169.598 101.457 169.336 101.103C169.075 100.745 168.69 100.566 168.182 100.566H167.145V104.749H168.182Z" fill="white"/>
<path d="M19.3907 127.048C19.2941 127.048 19.21 127 19.1384 126.903C19.0668 126.803 19.0113 126.69 18.9719 126.565C18.9361 126.436 18.9182 126.334 18.9182 126.259C18.9182 126.187 18.9254 126.139 18.9397 126.114C18.954 126.089 18.988 126.069 19.0417 126.055C19.525 125.908 19.9528 125.672 20.3251 125.346C20.6974 125.02 20.9605 124.628 21.1144 124.17C20.9426 124.263 20.7797 124.328 20.6258 124.363C20.4754 124.396 20.3197 124.412 20.1586 124.412C19.8865 124.412 19.6055 124.346 19.3156 124.213C19.0292 124.081 18.784 123.864 18.5799 123.563C18.3759 123.259 18.2739 122.869 18.2739 122.393C18.2739 121.902 18.3812 121.498 18.596 121.179C18.8108 120.857 19.0883 120.623 19.4283 120.476C19.772 120.325 20.1353 120.25 20.5184 120.25C20.9086 120.25 21.2737 120.334 21.6138 120.503C21.9539 120.671 22.2313 120.941 22.4461 121.314C22.6645 121.686 22.7737 122.162 22.7737 122.742C22.7737 123.83 22.5302 124.695 22.0434 125.335C21.5565 125.973 21.0392 126.418 20.4915 126.672C19.9474 126.923 19.5805 127.048 19.3907 127.048ZM20.5667 123.295C20.7958 123.295 21.0482 123.22 21.3238 123.069C21.331 122.973 21.3346 122.826 21.3346 122.629C21.3346 122.185 21.2594 121.865 21.109 121.668C20.9587 121.467 20.76 121.367 20.513 121.367C20.3627 121.367 20.2248 121.41 20.0995 121.496C19.9778 121.578 19.8812 121.695 19.8096 121.845C19.738 121.992 19.7022 122.16 19.7022 122.35C19.7022 122.643 19.7774 122.874 19.9277 123.043C20.0816 123.211 20.2946 123.295 20.5667 123.295ZM25.6625 127.081C25.1936 127.081 24.7891 126.945 24.449 126.672C24.1089 126.4 23.8476 126.008 23.665 125.496C23.486 124.981 23.3965 124.367 23.3965 123.655C23.3965 122.946 23.486 122.336 23.665 121.824C23.8476 121.312 24.1089 120.92 24.449 120.648C24.7891 120.376 25.1936 120.24 25.6625 120.24C26.1315 120.24 26.5342 120.376 26.8707 120.648C27.2108 120.92 27.4703 121.312 27.6493 121.824C27.8319 122.336 27.9232 122.946 27.9232 123.655C27.9232 124.367 27.8319 124.981 27.6493 125.496C27.4703 126.008 27.2108 126.4 26.8707 126.672C26.5342 126.945 26.1315 127.081 25.6625 127.081ZM25.6625 125.958C25.931 125.958 26.1369 125.763 26.2801 125.373C26.4232 124.983 26.4948 124.41 26.4948 123.655C26.4948 122.903 26.4232 122.332 26.2801 121.942C26.1369 121.552 25.931 121.356 25.6625 121.356C25.3941 121.356 25.1882 121.552 25.045 121.942C24.9018 122.332 24.8302 122.903 24.8302 123.655C24.8302 124.41 24.9018 124.983 25.045 125.373C25.1882 125.763 25.3941 125.958 25.6625 125.958ZM30.7745 127.081C30.3055 127.081 29.901 126.945 29.5609 126.672C29.2209 126.4 28.9595 126.008 28.777 125.496C28.598 124.981 28.5085 124.367 28.5085 123.655C28.5085 122.946 28.598 122.336 28.777 121.824C28.9595 121.312 29.2209 120.92 29.5609 120.648C29.901 120.376 30.3055 120.24 30.7745 120.24C31.2434 120.24 31.6462 120.376 31.9827 120.648C32.3227 120.92 32.5823 121.312 32.7613 121.824C32.9438 122.336 33.0351 122.946 33.0351 123.655C33.0351 124.367 32.9438 124.981 32.7613 125.496C32.5823 126.008 32.3227 126.4 31.9827 126.672C31.6462 126.945 31.2434 127.081 30.7745 127.081ZM30.7745 125.958C31.043 125.958 31.2488 125.763 31.392 125.373C31.5352 124.983 31.6068 124.41 31.6068 123.655C31.6068 122.903 31.5352 122.332 31.392 121.942C31.2488 121.552 31.043 121.356 30.7745 121.356C30.506 121.356 30.3002 121.552 30.157 121.942C30.0138 122.332 29.9422 122.903 29.9422 123.655C29.9422 124.41 30.0138 124.983 30.157 125.373C30.3002 125.763 30.506 125.958 30.7745 125.958ZM39.1082 127.081C38.292 127.081 37.6495 126.893 37.1805 126.517C36.7151 126.141 36.4127 125.561 36.273 124.777H35.9186C35.822 124.777 35.7504 124.752 35.7039 124.702C35.6573 124.648 35.6341 124.564 35.6341 124.449V124.38C35.6341 124.269 35.6573 124.188 35.7039 124.138C35.7504 124.084 35.822 124.057 35.9186 124.057H36.1979C36.1943 123.968 36.1925 123.828 36.1925 123.639C36.1925 123.503 36.1943 123.401 36.1979 123.333H35.9186C35.822 123.333 35.7504 123.307 35.7039 123.257C35.6573 123.204 35.6341 123.12 35.6341 123.005V122.941C35.6341 122.83 35.6573 122.749 35.7039 122.699C35.7504 122.645 35.822 122.618 35.9186 122.618H36.2677C36.4037 121.827 36.7134 121.233 37.1966 120.836C37.6835 120.438 38.3386 120.24 39.1619 120.24C39.4233 120.24 39.6935 120.268 39.9728 120.325C40.2556 120.383 40.4918 120.463 40.6816 120.567C40.8713 120.667 40.9661 120.78 40.9661 120.905C40.9661 120.995 40.9304 121.113 40.8588 121.26C40.7872 121.403 40.7012 121.53 40.601 121.641C40.5044 121.752 40.4184 121.808 40.3433 121.808C40.3254 121.808 40.2806 121.79 40.209 121.754C40.0658 121.682 39.9119 121.623 39.7472 121.577C39.5826 121.526 39.3749 121.501 39.1243 121.501C38.4155 121.501 37.9699 121.874 37.7873 122.618H40.0748C40.175 122.618 40.2466 122.643 40.2896 122.694C40.3361 122.744 40.3594 122.826 40.3594 122.941V123.005C40.3594 123.12 40.3361 123.204 40.2896 123.257C40.2466 123.307 40.175 123.333 40.0748 123.333H37.6853C37.6817 123.401 37.6799 123.506 37.6799 123.649C37.6799 123.839 37.6817 123.975 37.6853 124.057H40.0748C40.175 124.057 40.2466 124.082 40.2896 124.133C40.3361 124.183 40.3594 124.265 40.3594 124.38V124.449C40.3594 124.564 40.3361 124.648 40.2896 124.702C40.2466 124.752 40.175 124.777 40.0748 124.777H37.8141C38.0146 125.475 38.446 125.824 39.1082 125.824C39.3552 125.824 39.5682 125.795 39.7472 125.738C39.9262 125.681 40.1106 125.607 40.3003 125.518C40.311 125.514 40.3379 125.502 40.3809 125.48C40.4274 125.455 40.4614 125.443 40.4829 125.443C40.5795 125.443 40.6708 125.498 40.7567 125.609C40.8426 125.717 40.9125 125.838 40.9661 125.974C41.0198 126.11 41.0467 126.211 41.0467 126.275C41.0467 126.451 40.9393 126.599 40.7245 126.721C40.5097 126.842 40.2502 126.934 39.9459 126.995C39.6452 127.052 39.366 127.081 39.1082 127.081Z" fill="white"/>
<path d="M126.332 127.488C126.164 127.488 126.04 127.465 125.961 127.418C125.886 127.372 125.849 127.3 125.849 127.203V125.748H124.409C124.309 125.748 124.236 125.711 124.189 125.635C124.146 125.56 124.125 125.438 124.125 125.27V125.206C124.125 125.038 124.146 124.916 124.189 124.841C124.236 124.765 124.309 124.728 124.409 124.728H125.849V123.257C125.849 123.156 125.886 123.085 125.961 123.042C126.037 122.995 126.16 122.972 126.332 122.972H126.461C126.629 122.972 126.751 122.995 126.826 123.042C126.901 123.085 126.939 123.156 126.939 123.257V124.728H128.405C128.501 124.728 128.573 124.765 128.619 124.841C128.666 124.916 128.689 125.038 128.689 125.206V125.27C128.689 125.438 128.666 125.56 128.619 125.635C128.573 125.711 128.501 125.748 128.405 125.748H126.939V127.203C126.939 127.3 126.901 127.372 126.826 127.418C126.751 127.465 126.629 127.488 126.461 127.488H126.332ZM132.067 127.488C131.966 127.488 131.893 127.45 131.847 127.375C131.804 127.3 131.782 127.178 131.782 127.01V126.849C131.782 126.681 131.804 126.559 131.847 126.484C131.893 126.409 131.966 126.371 132.067 126.371H133.339V122.081L132.04 122.274C131.932 122.274 131.854 122.188 131.804 122.016C131.757 121.841 131.734 121.658 131.734 121.468C131.734 121.397 131.755 121.34 131.798 121.297C131.841 121.25 131.902 121.22 131.981 121.205L134.36 120.765C134.438 120.765 134.522 120.79 134.612 120.84C134.705 120.89 134.752 120.942 134.752 120.996V126.371H135.772C135.872 126.371 135.945 126.41 135.992 126.489C136.038 126.564 136.062 126.684 136.062 126.849V127.01C136.062 127.175 136.038 127.296 135.992 127.375C135.945 127.45 135.872 127.488 135.772 127.488H132.067ZM139.042 127.568C138.573 127.568 138.168 127.432 137.828 127.16C137.488 126.888 137.227 126.496 137.044 125.984C136.865 125.469 136.776 124.855 136.776 124.143C136.776 123.434 136.865 122.823 137.044 122.312C137.227 121.8 137.488 121.408 137.828 121.136C138.168 120.864 138.573 120.727 139.042 120.727C139.511 120.727 139.914 120.864 140.25 121.136C140.59 121.408 140.85 121.8 141.029 122.312C141.211 122.823 141.303 123.434 141.303 124.143C141.303 124.855 141.211 125.469 141.029 125.984C140.85 126.496 140.59 126.888 140.25 127.16C139.914 127.432 139.511 127.568 139.042 127.568ZM139.042 126.446C139.31 126.446 139.516 126.251 139.659 125.861C139.803 125.471 139.874 124.898 139.874 124.143C139.874 123.391 139.803 122.82 139.659 122.43C139.516 122.039 139.31 121.844 139.042 121.844C138.773 121.844 138.568 122.039 138.424 122.43C138.281 122.82 138.21 123.391 138.21 124.143C138.21 124.898 138.281 125.471 138.424 125.861C138.568 126.251 138.773 126.446 139.042 126.446ZM144.154 127.568C143.685 127.568 143.28 127.432 142.94 127.16C142.6 126.888 142.339 126.496 142.156 125.984C141.977 125.469 141.888 124.855 141.888 124.143C141.888 123.434 141.977 122.823 142.156 122.312C142.339 121.8 142.6 121.408 142.94 121.136C143.28 120.864 143.685 120.727 144.154 120.727C144.623 120.727 145.026 120.864 145.362 121.136C145.702 121.408 145.962 121.8 146.141 122.312C146.323 122.823 146.414 123.434 146.414 124.143C146.414 124.855 146.323 125.469 146.141 125.984C145.962 126.496 145.702 126.888 145.362 127.16C145.026 127.432 144.623 127.568 144.154 127.568ZM144.154 126.446C144.422 126.446 144.628 126.251 144.771 125.861C144.915 125.471 144.986 124.898 144.986 124.143C144.986 123.391 144.915 122.82 144.771 122.43C144.628 122.039 144.422 121.844 144.154 121.844C143.885 121.844 143.68 122.039 143.536 122.43C143.393 122.82 143.322 123.391 143.322 124.143C143.322 124.898 143.393 125.471 143.536 125.861C143.68 126.251 143.885 126.446 144.154 126.446ZM152.488 127.568C151.671 127.568 151.029 127.381 150.56 127.005C150.094 126.629 149.792 126.049 149.652 125.265H149.298C149.201 125.265 149.13 125.24 149.083 125.19C149.037 125.136 149.013 125.052 149.013 124.937V124.868C149.013 124.757 149.037 124.676 149.083 124.626C149.13 124.572 149.201 124.545 149.298 124.545H149.577C149.574 124.456 149.572 124.316 149.572 124.126C149.572 123.99 149.574 123.888 149.577 123.82H149.298C149.201 123.82 149.13 123.795 149.083 123.745C149.037 123.692 149.013 123.607 149.013 123.493V123.428C149.013 123.317 149.037 123.237 149.083 123.187C149.13 123.133 149.201 123.106 149.298 123.106H149.647C149.783 122.315 150.093 121.721 150.576 121.324C151.063 120.926 151.718 120.727 152.541 120.727C152.803 120.727 153.073 120.756 153.352 120.813C153.635 120.871 153.871 120.951 154.061 121.055C154.251 121.155 154.345 121.268 154.345 121.393C154.345 121.483 154.31 121.601 154.238 121.748C154.167 121.891 154.081 122.018 153.98 122.129C153.884 122.24 153.798 122.295 153.723 122.295C153.705 122.295 153.66 122.278 153.588 122.242C153.445 122.17 153.291 122.111 153.127 122.065C152.962 122.014 152.754 121.989 152.504 121.989C151.795 121.989 151.349 122.362 151.167 123.106H153.454C153.554 123.106 153.626 123.131 153.669 123.181C153.715 123.232 153.739 123.314 153.739 123.428V123.493C153.739 123.607 153.715 123.692 153.669 123.745C153.626 123.795 153.554 123.82 153.454 123.82H151.065C151.061 123.888 151.059 123.994 151.059 124.137C151.059 124.327 151.061 124.463 151.065 124.545H153.454C153.554 124.545 153.626 124.57 153.669 124.621C153.715 124.671 153.739 124.753 153.739 124.868V124.937C153.739 125.052 153.715 125.136 153.669 125.19C153.626 125.24 153.554 125.265 153.454 125.265H151.193C151.394 125.963 151.825 126.312 152.488 126.312C152.735 126.312 152.948 126.283 153.127 126.226C153.306 126.169 153.49 126.095 153.68 126.006C153.69 126.002 153.717 125.99 153.76 125.968C153.807 125.943 153.841 125.931 153.862 125.931C153.959 125.931 154.05 125.986 154.136 126.097C154.222 126.205 154.292 126.326 154.345 126.462C154.399 126.598 154.426 126.699 154.426 126.763C154.426 126.938 154.319 127.087 154.104 127.209C153.889 127.33 153.63 127.422 153.325 127.483C153.025 127.54 152.745 127.568 152.488 127.568ZM161.525 129.475C161.425 129.475 161.339 129.423 161.267 129.319C160.802 128.653 160.445 127.932 160.198 127.155C159.955 126.375 159.833 125.573 159.833 124.749C159.833 123.926 159.955 123.124 160.198 122.344C160.445 121.56 160.802 120.833 161.267 120.164C161.339 120.063 161.425 120.013 161.525 120.013C161.589 120.013 161.664 120.037 161.75 120.083C161.84 120.126 161.915 120.182 161.976 120.25C162.037 120.318 162.067 120.386 162.067 120.454C162.067 120.525 162.051 120.588 162.019 120.642C161.639 121.358 161.365 122.039 161.197 122.687C161.033 123.335 160.95 124.023 160.95 124.749C160.95 125.469 161.033 126.153 161.197 126.801C161.365 127.449 161.639 128.13 162.019 128.846C162.051 128.9 162.067 128.963 162.067 129.034C162.067 129.102 162.037 129.17 161.976 129.238C161.915 129.306 161.84 129.362 161.75 129.405C161.664 129.451 161.589 129.475 161.525 129.475ZM165.208 127.488C165.108 127.488 165.035 127.45 164.988 127.375C164.945 127.3 164.924 127.178 164.924 127.01V126.849C164.924 126.681 164.945 126.559 164.988 126.484C165.035 126.409 165.108 126.371 165.208 126.371H166.481V122.081L165.182 122.274C165.074 122.274 164.995 122.188 164.945 122.016C164.899 121.841 164.875 121.658 164.875 121.468C164.875 121.397 164.897 121.34 164.94 121.297C164.983 121.25 165.044 121.22 165.122 121.205L167.501 120.765C167.58 120.765 167.664 120.79 167.754 120.84C167.847 120.89 167.893 120.942 167.893 120.996V126.371H168.913C169.014 126.371 169.087 126.41 169.134 126.489C169.18 126.564 169.203 126.684 169.203 126.849V127.01C169.203 127.175 169.18 127.296 169.134 127.375C169.087 127.45 169.014 127.488 168.913 127.488H165.208ZM172.184 127.568C171.715 127.568 171.31 127.432 170.97 127.16C170.63 126.888 170.369 126.496 170.186 125.984C170.007 125.469 169.918 124.855 169.918 124.143C169.918 123.434 170.007 122.823 170.186 122.312C170.369 121.8 170.63 121.408 170.97 121.136C171.31 120.864 171.715 120.727 172.184 120.727C172.653 120.727 173.055 120.864 173.392 121.136C173.732 121.408 173.991 121.8 174.17 122.312C174.353 122.823 174.444 123.434 174.444 124.143C174.444 124.855 174.353 125.469 174.17 125.984C173.991 126.496 173.732 126.888 173.392 127.16C173.055 127.432 172.653 127.568 172.184 127.568ZM172.184 126.446C172.452 126.446 172.658 126.251 172.801 125.861C172.944 125.471 173.016 124.898 173.016 124.143C173.016 123.391 172.944 122.82 172.801 122.43C172.658 122.039 172.452 121.844 172.184 121.844C171.915 121.844 171.709 122.039 171.566 122.43C171.423 122.82 171.351 123.391 171.351 124.143C171.351 124.898 171.423 125.471 171.566 125.861C171.709 126.251 171.915 126.446 172.184 126.446ZM176.608 123.933C176.2 123.933 175.858 123.817 175.583 123.584C175.311 123.351 175.175 122.934 175.175 122.333C175.175 121.732 175.311 121.315 175.583 121.082C175.858 120.846 176.2 120.727 176.608 120.727C177.016 120.727 177.356 120.846 177.628 121.082C177.904 121.315 178.042 121.732 178.042 122.333C178.042 122.934 177.904 123.351 177.628 123.584C177.356 123.817 177.016 123.933 176.608 123.933ZM176.404 127.504C176.343 127.504 176.295 127.493 176.259 127.472C176.227 127.447 176.211 127.416 176.211 127.381C176.211 127.345 176.225 127.298 176.254 127.241L179.664 121.055C179.76 120.872 179.9 120.781 180.082 120.781H180.501C180.566 120.781 180.614 120.795 180.646 120.824C180.682 120.849 180.7 120.881 180.7 120.921C180.7 120.946 180.686 120.991 180.657 121.055L177.247 127.241C177.197 127.327 177.138 127.393 177.07 127.44C177.002 127.483 176.92 127.504 176.823 127.504H176.404ZM176.608 123.155C176.776 123.155 176.893 123.076 176.957 122.918C177.022 122.757 177.054 122.562 177.054 122.333C177.054 121.81 176.905 121.549 176.608 121.549C176.44 121.549 176.32 121.624 176.248 121.775C176.18 121.925 176.146 122.111 176.146 122.333C176.146 122.559 176.18 122.752 176.248 122.913C176.32 123.074 176.44 123.155 176.608 123.155ZM180.297 127.568C179.893 127.568 179.553 127.45 179.277 127.214C179.005 126.978 178.869 126.559 178.869 125.958C178.869 125.36 179.005 124.944 179.277 124.712C179.553 124.476 179.893 124.357 180.297 124.357C180.705 124.357 181.047 124.474 181.323 124.706C181.598 124.939 181.736 125.356 181.736 125.958C181.736 126.559 181.598 126.978 181.323 127.214C181.047 127.45 180.705 127.568 180.297 127.568ZM180.297 126.784C180.465 126.784 180.582 126.706 180.646 126.548C180.714 126.387 180.748 126.19 180.748 125.958C180.748 125.438 180.598 125.179 180.297 125.179C180.133 125.179 180.014 125.254 179.943 125.404C179.875 125.551 179.841 125.736 179.841 125.958C179.841 126.187 179.875 126.382 179.943 126.543C180.014 126.704 180.133 126.784 180.297 126.784ZM182.719 129.475C182.654 129.475 182.578 129.451 182.488 129.405C182.402 129.362 182.329 129.306 182.268 129.238C182.207 129.17 182.177 129.102 182.177 129.034C182.177 128.959 182.191 128.897 182.22 128.846C182.603 128.127 182.876 127.445 183.041 126.801C183.209 126.153 183.293 125.469 183.293 124.749C183.293 124.023 183.209 123.335 183.041 122.687C182.876 122.039 182.603 121.358 182.22 120.642C182.191 120.591 182.177 120.529 182.177 120.454C182.177 120.386 182.207 120.318 182.268 120.25C182.329 120.182 182.402 120.126 182.488 120.083C182.578 120.037 182.654 120.013 182.719 120.013C182.823 120.013 182.907 120.063 182.971 120.164C183.437 120.833 183.793 121.558 184.04 122.338C184.287 123.119 184.41 123.922 184.41 124.749C184.41 125.576 184.287 126.378 184.04 127.155C183.793 127.932 183.437 128.653 182.971 129.319C182.903 129.423 182.819 129.475 182.719 129.475Z" fill="#11D200"/>
<path d="M204.122 78.1581L238.514 76.1969L247.792 72.8985L256.978 72.8985L265.862 67.1041L271.208 69.0207L278.963 61.4879L294.624 59.8833L299.142 53.5539L308.026 61.4879L316.911 50.5229L333.325 46.6897L339.8 43.0347L351.395 43.0347L361.183 40.0037L366.453 34.3876L375.79 31" stroke="#138B00" stroke-width="0.598861"/>
<defs>
<filter id="filter0_d_25_49" x="0.250721" y="0" width="403.499" height="181.069" filterUnits="userSpaceOnUse" color-interpolation-filters="sRGB">
<feFlood flood-opacity="0" result="BackgroundImageFix"/>
<feColorMatrix in="SourceAlpha" type="matrix" values="0 0 0 0 0 0 0 0 0 0 0 0 0 0 0 0 0 0 127 0" result="hardAlpha"/>
<feOffset dy="2.74928"/>
<feGaussianBlur stdDeviation="1.37464"/>
<feComposite in2="hardAlpha" operator="out"/>
<feColorMatrix type="matrix" values="0 0 0 0 0 0 0 0 0 0 0 0 0 0 0 0 0 0 0.25 0"/>
<feBlend mode="normal" in2="BackgroundImageFix" result="effect1_dropShadow_25_49"/>
<feBlend mode="normal" in="SourceGraphic" in2="effect1_dropShadow_25_49" result="shape"/>
</filter>
</defs>
</svg>
